<svg width="231" height="199" viewBox="0 0 231 199" fill="none" xmlns="http://www.w3.org/2000/svg">
<path d="M0 99.5L57.75 0.340088H173.25L231 99.5L173.25 198.66H57.75L0 99.5Z" fill="#5BC0BE"/>
<path d="M148.557 68.7137C151.338 70.2294 151.338 74.2221 148.557 75.7379L102.023 101.104C99.3571 102.557 96.1082 100.627 96.1082 97.5917L96.1082 46.8599C96.1082 43.8241 99.3571 41.8948 102.023 43.3478L148.557 68.7137Z" stroke="white" stroke-width="8"/>
<path d="M64.4492 145.301C63.668 145.965 62.7969 146.477 61.8359 146.836C60.875 147.188 59.875 147.363 58.8359 147.363C58.0391 147.363 57.2695 147.258 56.5273 147.047C55.793 146.844 55.1055 146.555 54.4648 146.18C53.8242 145.797 53.2383 145.344 52.707 144.82C52.1758 144.289 51.7227 143.703 51.3477 143.062C50.9727 142.414 50.6797 141.719 50.4688 140.977C50.2656 140.234 50.1641 139.465 50.1641 138.668C50.1641 137.871 50.2656 137.105 50.4688 136.371C50.6797 135.637 50.9727 134.949 51.3477 134.309C51.7227 133.66 52.1758 133.074 52.707 132.551C53.2383 132.02 53.8242 131.566 54.4648 131.191C55.1055 130.816 55.793 130.527 56.5273 130.324C57.2695 130.113 58.0391 130.008 58.8359 130.008C59.875 130.008 60.875 130.188 61.8359 130.547C62.7969 130.898 63.668 131.406 64.4492 132.07L62.6914 135C62.1836 134.484 61.5977 134.082 60.9336 133.793C60.2695 133.496 59.5703 133.348 58.8359 133.348C58.1016 133.348 57.4102 133.488 56.7617 133.77C56.1211 134.051 55.5586 134.434 55.0742 134.918C54.5898 135.395 54.207 135.957 53.9258 136.605C53.6445 137.246 53.5039 137.934 53.5039 138.668C53.5039 139.41 53.6445 140.105 53.9258 140.754C54.207 141.402 54.5898 141.969 55.0742 142.453C55.5586 142.938 56.1211 143.32 56.7617 143.602C57.4102 143.883 58.1016 144.023 58.8359 144.023C59.2578 144.023 59.668 143.973 60.0664 143.871C60.4648 143.77 60.8438 143.629 61.2031 143.449V138.668H64.4492V145.301ZM71.6914 143.93C71.8164 143.969 71.9414 143.996 72.0664 144.012C72.1914 144.02 72.3164 144.023 72.4414 144.023C72.7539 144.023 73.0547 143.98 73.3438 143.895C73.6328 143.809 73.9023 143.688 74.1523 143.531C74.4102 143.367 74.6367 143.172 74.832 142.945C75.0352 142.711 75.1992 142.453 75.3242 142.172L77.668 144.527C77.3711 144.949 77.0273 145.328 76.6367 145.664C76.2539 146 75.8359 146.285 75.3828 146.52C74.9375 146.754 74.4648 146.93 73.9648 147.047C73.4727 147.172 72.9648 147.234 72.4414 147.234C71.5586 147.234 70.7266 147.07 69.9453 146.742C69.1719 146.414 68.4922 145.957 67.9062 145.371C67.3281 144.785 66.8711 144.09 66.5352 143.285C66.1992 142.473 66.0312 141.582 66.0312 140.613C66.0312 139.621 66.1992 138.715 66.5352 137.895C66.8711 137.074 67.3281 136.375 67.9062 135.797C68.4922 135.219 69.1719 134.77 69.9453 134.449C70.7266 134.129 71.5586 133.969 72.4414 133.969C72.9648 133.969 73.4766 134.031 73.9766 134.156C74.4766 134.281 74.9492 134.461 75.3945 134.695C75.8477 134.93 76.2695 135.219 76.6602 135.562C77.0508 135.898 77.3945 136.277 77.6914 136.699L71.6914 143.93ZM73.332 137.332C73.1836 137.277 73.0352 137.242 72.8867 137.227C72.7461 137.211 72.5977 137.203 72.4414 137.203C72.0039 137.203 71.5898 137.285 71.1992 137.449C70.8164 137.605 70.4805 137.832 70.1914 138.129C69.9102 138.426 69.6875 138.785 69.5234 139.207C69.3594 139.621 69.2773 140.09 69.2773 140.613C69.2773 140.73 69.2812 140.863 69.2891 141.012C69.3047 141.16 69.3242 141.312 69.3477 141.469C69.3789 141.617 69.4141 141.762 69.4531 141.902C69.4922 142.043 69.543 142.168 69.6055 142.277L73.332 137.332ZM85.6016 147C84.8281 147 84.1016 146.855 83.4219 146.566C82.7422 146.27 82.1445 145.867 81.6289 145.359C81.1211 144.844 80.7188 144.246 80.4219 143.566C80.1328 142.887 79.9883 142.16 79.9883 141.387V137.66H78.4297V134.473H79.9883V129.457H83.1758V134.473H88.0273V137.66H83.1758V141.387C83.1758 141.723 83.2383 142.039 83.3633 142.336C83.4883 142.625 83.6602 142.879 83.8789 143.098C84.0977 143.316 84.3555 143.492 84.6523 143.625C84.9492 143.75 85.2656 143.812 85.6016 143.812H88.0273V147H85.6016ZM95.9141 135.234C95.9141 134.539 96.0469 133.887 96.3125 133.277C96.5781 132.668 96.9375 132.137 97.3906 131.684C97.8516 131.223 98.3867 130.859 98.9961 130.594C99.6055 130.328 100.258 130.195 100.953 130.195H108.664V133.559H100.953C100.719 133.559 100.5 133.602 100.297 133.688C100.094 133.773 99.9141 133.895 99.7578 134.051C99.6094 134.199 99.4922 134.375 99.4062 134.578C99.3203 134.781 99.2773 135 99.2773 135.234C99.2773 135.469 99.3203 135.691 99.4062 135.902C99.4922 136.105 99.6094 136.285 99.7578 136.441C99.9141 136.59 100.094 136.707 100.297 136.793C100.5 136.879 100.719 136.922 100.953 136.922H104.316C105.012 136.922 105.664 137.055 106.273 137.32C106.891 137.578 107.426 137.938 107.879 138.398C108.34 138.852 108.699 139.387 108.957 140.004C109.223 140.613 109.355 141.266 109.355 141.961C109.355 142.656 109.223 143.309 108.957 143.918C108.699 144.527 108.34 145.062 107.879 145.523C107.426 145.977 106.891 146.336 106.273 146.602C105.664 146.867 105.012 147 104.316 147H96.8516V143.637H104.316C104.551 143.637 104.77 143.594 104.973 143.508C105.176 143.422 105.352 143.305 105.5 143.156C105.656 143 105.777 142.82 105.863 142.617C105.949 142.414 105.992 142.195 105.992 141.961C105.992 141.727 105.949 141.508 105.863 141.305C105.777 141.102 105.656 140.926 105.5 140.777C105.352 140.621 105.176 140.5 104.973 140.414C104.77 140.328 104.551 140.285 104.316 140.285H100.953C100.258 140.285 99.6055 140.152 98.9961 139.887C98.3867 139.621 97.8516 139.262 97.3906 138.809C96.9375 138.348 96.5781 137.812 96.3125 137.203C96.0469 136.586 95.9141 135.93 95.9141 135.234ZM117.312 147C116.539 147 115.812 146.855 115.133 146.566C114.453 146.27 113.855 145.867 113.34 145.359C112.832 144.844 112.43 144.246 112.133 143.566C111.844 142.887 111.699 142.16 111.699 141.387V137.66H110.141V134.473H111.699V129.457H114.887V134.473H119.738V137.66H114.887V141.387C114.887 141.723 114.949 142.039 115.074 142.336C115.199 142.625 115.371 142.879 115.59 143.098C115.809 143.316 116.066 143.492 116.363 143.625C116.66 143.75 116.977 143.812 117.312 143.812H119.738V147H117.312ZM133.695 147H132.922L131.68 145.277C131.375 145.551 131.051 145.809 130.707 146.051C130.371 146.285 130.016 146.492 129.641 146.672C129.266 146.844 128.879 146.98 128.48 147.082C128.09 147.184 127.691 147.234 127.285 147.234C126.402 147.234 125.57 147.086 124.789 146.789C124.016 146.492 123.336 146.062 122.75 145.5C122.172 144.93 121.715 144.234 121.379 143.414C121.043 142.594 120.875 141.66 120.875 140.613C120.875 139.637 121.043 138.742 121.379 137.93C121.715 137.109 122.172 136.406 122.75 135.82C123.336 135.234 124.016 134.781 124.789 134.461C125.57 134.133 126.402 133.969 127.285 133.969C127.691 133.969 128.094 134.02 128.492 134.121C128.891 134.223 129.277 134.363 129.652 134.543C130.027 134.723 130.383 134.934 130.719 135.176C131.062 135.418 131.383 135.68 131.68 135.961L132.922 134.473H133.695V147ZM130.473 140.613C130.473 140.176 130.387 139.754 130.215 139.348C130.051 138.934 129.824 138.57 129.535 138.258C129.246 137.938 128.906 137.684 128.516 137.496C128.133 137.301 127.723 137.203 127.285 137.203C126.848 137.203 126.434 137.277 126.043 137.426C125.66 137.574 125.324 137.793 125.035 138.082C124.754 138.371 124.531 138.73 124.367 139.16C124.203 139.582 124.121 140.066 124.121 140.613C124.121 141.16 124.203 141.648 124.367 142.078C124.531 142.5 124.754 142.855 125.035 143.145C125.324 143.434 125.66 143.652 126.043 143.801C126.434 143.949 126.848 144.023 127.285 144.023C127.723 144.023 128.133 143.93 128.516 143.742C128.906 143.547 129.246 143.293 129.535 142.98C129.824 142.66 130.051 142.297 130.215 141.891C130.387 141.477 130.473 141.051 130.473 140.613ZM139.344 147H136.145V134.449H136.918L137.973 135.938C138.488 135.469 139.074 135.109 139.73 134.859C140.387 134.602 141.066 134.473 141.77 134.473H144.594V137.66H141.77C141.434 137.66 141.117 137.723 140.82 137.848C140.523 137.973 140.266 138.145 140.047 138.363C139.828 138.582 139.656 138.84 139.531 139.137C139.406 139.434 139.344 139.75 139.344 140.086V147ZM152.375 147C151.602 147 150.875 146.855 150.195 146.566C149.516 146.27 148.918 145.867 148.402 145.359C147.895 144.844 147.492 144.246 147.195 143.566C146.906 142.887 146.762 142.16 146.762 141.387V137.66H145.203V134.473H146.762V129.457H149.949V134.473H154.801V137.66H149.949V141.387C149.949 141.723 150.012 142.039 150.137 142.336C150.262 142.625 150.434 142.879 150.652 143.098C150.871 143.316 151.129 143.492 151.426 143.625C151.723 143.75 152.039 143.812 152.375 143.812H154.801V147H152.375ZM161.598 143.93C161.723 143.969 161.848 143.996 161.973 144.012C162.098 144.02 162.223 144.023 162.348 144.023C162.66 144.023 162.961 143.98 163.25 143.895C163.539 143.809 163.809 143.688 164.059 143.531C164.316 143.367 164.543 143.172 164.738 142.945C164.941 142.711 165.105 142.453 165.23 142.172L167.574 144.527C167.277 144.949 166.934 145.328 166.543 145.664C166.16 146 165.742 146.285 165.289 146.52C164.844 146.754 164.371 146.93 163.871 147.047C163.379 147.172 162.871 147.234 162.348 147.234C161.465 147.234 160.633 147.07 159.852 146.742C159.078 146.414 158.398 145.957 157.812 145.371C157.234 144.785 156.777 144.09 156.441 143.285C156.105 142.473 155.938 141.582 155.938 140.613C155.938 139.621 156.105 138.715 156.441 137.895C156.777 137.074 157.234 136.375 157.812 135.797C158.398 135.219 159.078 134.77 159.852 134.449C160.633 134.129 161.465 133.969 162.348 133.969C162.871 133.969 163.383 134.031 163.883 134.156C164.383 134.281 164.855 134.461 165.301 134.695C165.754 134.93 166.176 135.219 166.566 135.562C166.957 135.898 167.301 136.277 167.598 136.699L161.598 143.93ZM163.238 137.332C163.09 137.277 162.941 137.242 162.793 137.227C162.652 137.211 162.504 137.203 162.348 137.203C161.91 137.203 161.496 137.285 161.105 137.449C160.723 137.605 160.387 137.832 160.098 138.129C159.816 138.426 159.594 138.785 159.43 139.207C159.266 139.621 159.184 140.09 159.184 140.613C159.184 140.73 159.188 140.863 159.195 141.012C159.211 141.16 159.23 141.312 159.254 141.469C159.285 141.617 159.32 141.762 159.359 141.902C159.398 142.043 159.449 142.168 159.512 142.277L163.238 137.332ZM181.25 147H180.477L179.234 145.277C178.93 145.551 178.605 145.809 178.262 146.051C177.926 146.285 177.57 146.492 177.195 146.672C176.82 146.844 176.434 146.98 176.035 147.082C175.645 147.184 175.246 147.234 174.84 147.234C173.957 147.234 173.125 147.07 172.344 146.742C171.57 146.406 170.891 145.945 170.305 145.359C169.727 144.766 169.27 144.066 168.934 143.262C168.598 142.449 168.43 141.566 168.43 140.613C168.43 139.668 168.598 138.789 168.934 137.977C169.27 137.164 169.727 136.461 170.305 135.867C170.891 135.273 171.57 134.809 172.344 134.473C173.125 134.137 173.957 133.969 174.84 133.969C175.121 133.969 175.41 133.992 175.707 134.039C176.012 134.086 176.305 134.164 176.586 134.273C176.875 134.375 177.145 134.512 177.395 134.684C177.645 134.855 177.855 135.066 178.027 135.316V129.457H181.25V147ZM178.027 140.613C178.027 140.176 177.941 139.754 177.77 139.348C177.605 138.934 177.379 138.57 177.09 138.258C176.801 137.938 176.461 137.684 176.07 137.496C175.688 137.301 175.277 137.203 174.84 137.203C174.402 137.203 173.988 137.281 173.598 137.438C173.215 137.594 172.879 137.82 172.59 138.117C172.309 138.406 172.086 138.762 171.922 139.184C171.758 139.605 171.676 140.082 171.676 140.613C171.676 141.074 171.758 141.512 171.922 141.926C172.086 142.34 172.309 142.703 172.59 143.016C172.879 143.328 173.215 143.574 173.598 143.754C173.988 143.934 174.402 144.023 174.84 144.023C175.277 144.023 175.688 143.93 176.07 143.742C176.461 143.547 176.801 143.293 177.09 142.98C177.379 142.66 177.605 142.297 177.77 141.891C177.941 141.477 178.027 141.051 178.027 140.613Z" fill="white"/>
</svg>
