<svg width="130" height="152" viewBox="0 0 130 152" fill="none" xmlns="http://www.w3.org/2000/svg">
<path d="M22.2778 -4.76837e-06C23.2112 2.26666 24.7445 6 26.8778 11.2C29.0112 16.2667 31.4112 22.0667 34.0778 28.6C36.8778 35.1333 39.7445 42.0667 42.6778 49.4C45.7445 56.7333 48.6112 63.6667 51.2778 70.2C53.9445 76.7333 56.3445 82.6 58.4778 87.8C60.6112 92.8667 62.1445 96.5333 63.0778 98.8C63.2112 99.0667 63.5445 100 64.0778 101.6C64.6112 103.2 65.0112 104.6 65.2778 105.8L67.2778 98.8C68.2112 96.5333 69.7445 92.8667 71.8778 87.8C74.0112 82.6 76.4112 76.7333 79.0778 70.2C81.7445 63.6667 84.5445 56.7333 87.4778 49.4C90.5445 42.0667 93.4112 35.1333 96.0778 28.6C98.8778 22.0667 101.345 16.2667 103.478 11.2C105.611 6 107.145 2.26666 108.078 -4.76837e-06H129.678C128.878 1.86666 127.411 5.26666 125.278 10.2C123.278 15 120.811 20.8667 117.878 27.8C114.945 34.7333 111.678 42.3333 108.078 50.6C104.611 58.8667 101.011 67.2667 97.2778 75.8C93.6778 84.3333 90.0778 92.7333 86.4778 101C83.0112 109.267 79.8112 116.867 76.8778 123.8C74.0778 130.733 71.6112 136.667 69.4778 141.6C67.4778 146.4 66.0778 149.733 65.2778 151.6L0.677832 -4.76837e-06H22.2778Z" fill="white"/>
</svg>
