<svg width="63" height="74" viewBox="0 0 63 74" fill="none" xmlns="http://www.w3.org/2000/svg">
<path d="M11.3513 0.399998C11.7993 1.488 12.5353 3.28 13.5593 5.776C14.5833 8.208 15.7353 10.992 17.0153 14.128C18.3593 17.264 19.7353 20.592 21.1433 24.112C22.6153 27.632 23.9913 30.96 25.2713 34.096C26.5513 37.232 27.7033 40.048 28.7273 42.544C29.7513 44.976 30.4873 46.736 30.9353 47.824C30.9993 47.952 31.1593 48.4 31.4153 49.168C31.6713 49.936 31.8633 50.608 31.9913 51.184L32.9513 47.824C33.3993 46.736 34.1353 44.976 35.1593 42.544C36.1833 40.048 37.3353 37.232 38.6153 34.096C39.8953 30.96 41.2393 27.632 42.6473 24.112C44.1193 20.592 45.4953 17.264 46.7753 14.128C48.1193 10.992 49.3033 8.208 50.3273 5.776C51.3513 3.28 52.0873 1.488 52.5353 0.399998H62.9033C62.5193 1.296 61.8153 2.928 60.7913 5.296C59.8313 7.6 58.6473 10.416 57.2393 13.744C55.8313 17.072 54.2633 20.72 52.5353 24.688C50.8713 28.656 49.1433 32.688 47.3513 36.784C45.6233 40.88 43.8953 44.912 42.1673 48.88C40.5033 52.848 38.9673 56.496 37.5593 59.824C36.2153 63.152 35.0313 66 34.0073 68.368C33.0473 70.672 32.3753 72.272 31.9913 73.168L0.983321 0.399998H11.3513Z" fill="white"/>
</svg>
