<svg width="675" height="227" viewBox="0 0 675 227" fill="none" xmlns="http://www.w3.org/2000/svg">
<path d="M263.022 75C263.955 77.2667 265.488 81 267.622 86.2C269.755 91.2667 272.155 97.0667 274.822 103.6C277.622 110.133 280.488 117.067 283.422 124.4C286.488 131.733 289.355 138.667 292.022 145.2C294.688 151.733 297.088 157.6 299.222 162.8C301.355 167.867 302.888 171.533 303.822 173.8C303.955 174.067 304.288 175 304.822 176.6C305.355 178.2 305.755 179.6 306.022 180.8L308.022 173.8C308.955 171.533 310.488 167.867 312.622 162.8C314.755 157.6 317.155 151.733 319.822 145.2C322.488 138.667 325.288 131.733 328.222 124.4C331.288 117.067 334.155 110.133 336.822 103.6C339.622 97.0667 342.088 91.2667 344.222 86.2C346.355 81 347.888 77.2667 348.822 75H370.422C369.622 76.8667 368.155 80.2667 366.022 85.2C364.022 90 361.555 95.8667 358.622 102.8C355.688 109.733 352.422 117.333 348.822 125.6C345.355 133.867 341.755 142.267 338.022 150.8C334.422 159.333 330.822 167.733 327.222 176C323.755 184.267 320.555 191.867 317.622 198.8C314.822 205.733 312.355 211.667 310.222 216.6C308.222 221.4 306.822 224.733 306.022 226.6L241.422 75H263.022Z" fill="white"/>
<path d="M287.278 75C288.211 77.2667 289.744 81 291.878 86.2C294.011 91.2667 296.411 97.0667 299.078 103.6C301.878 110.133 304.745 117.067 307.678 124.4C310.745 131.733 313.611 138.667 316.278 145.2C318.945 151.733 321.345 157.6 323.478 162.8C325.611 167.867 327.145 171.533 328.078 173.8C328.211 174.067 328.545 175 329.078 176.6C329.611 178.2 330.011 179.6 330.278 180.8L332.278 173.8C333.211 171.533 334.745 167.867 336.878 162.8C339.011 157.6 341.411 151.733 344.078 145.2C346.745 138.667 349.545 131.733 352.478 124.4C355.545 117.067 358.411 110.133 361.078 103.6C363.878 97.0667 366.345 91.2667 368.478 86.2C370.611 81 372.145 77.2667 373.078 75H394.678C393.878 76.8667 392.411 80.2667 390.278 85.2C388.278 90 385.811 95.8667 382.878 102.8C379.945 109.733 376.678 117.333 373.078 125.6C369.611 133.867 366.011 142.267 362.278 150.8C358.678 159.333 355.078 167.733 351.478 176C348.011 184.267 344.811 191.867 341.878 198.8C339.078 205.733 336.611 211.667 334.478 216.6C332.478 221.4 331.078 224.733 330.278 226.6L265.678 75H287.278Z" fill="white"/>
<path d="M429.769 172.434C428.041 176.994 426.193 181.794 424.225 186.834C422.305 191.826 420.385 196.746 418.465 201.594C416.593 206.442 414.817 211.05 413.137 215.418C411.457 219.786 410.041 223.554 408.889 226.722L397.225 197.562C397.081 197.178 396.961 196.89 396.865 196.698C396.769 196.506 396.673 196.218 396.577 195.834C396.577 196.026 396.553 196.218 396.505 196.41C396.457 196.554 396.409 196.722 396.361 196.914C396.313 197.106 396.265 197.298 396.217 197.49C394.585 201.234 392.977 204.906 391.393 208.506C390.721 210.042 390.025 211.626 389.305 213.258C388.585 214.89 387.889 216.522 387.217 218.154C386.545 219.738 385.873 221.274 385.201 222.762C384.577 224.25 384.001 225.594 383.473 226.794C380.017 217.722 376.537 208.674 373.033 199.65C369.529 190.626 366.049 181.554 362.593 172.434H371.449C372.601 175.602 373.777 178.794 374.977 182.01C376.225 185.226 377.377 188.322 378.433 191.298C379.537 194.274 380.521 197.034 381.385 199.578C382.249 202.122 382.921 204.282 383.401 206.058L383.977 208.578C384.025 208.338 384.145 207.954 384.337 207.426C384.529 206.85 384.673 206.442 384.769 206.202C384.817 206.01 384.985 205.578 385.273 204.906C385.561 204.234 385.897 203.442 386.281 202.53C386.665 201.57 387.097 200.538 387.577 199.434C388.057 198.33 388.537 197.202 389.017 196.05C390.169 193.41 391.441 190.482 392.833 187.266C392.017 185.01 391.297 182.898 390.673 180.93C390.097 179.25 389.545 177.594 389.017 175.962C388.537 174.33 388.177 173.154 387.937 172.434H395.497C397.561 177.858 399.481 182.874 401.257 187.482C401.977 189.45 402.697 191.418 403.417 193.386C404.185 195.354 404.881 197.178 405.505 198.858C406.177 200.538 406.753 202.026 407.233 203.322C407.713 204.57 408.049 205.482 408.241 206.058C408.385 206.49 408.481 206.922 408.529 207.354C408.625 207.738 408.721 208.146 408.817 208.578C408.913 208.146 408.985 207.714 409.033 207.282C409.129 206.85 409.225 206.442 409.321 206.058C409.753 204.186 410.425 201.954 411.337 199.362C412.249 196.77 413.257 193.986 414.361 191.01C415.513 188.034 416.713 184.962 417.961 181.794C419.209 178.578 420.409 175.458 421.561 172.434H429.769ZM453.561 220.89C452.121 222.186 450.369 223.218 448.305 223.986C446.241 224.754 444.129 225.138 441.969 225.138C439.761 225.138 437.673 224.73 435.705 223.914C433.785 223.05 432.105 221.922 430.665 220.53C429.225 219.09 428.073 217.41 427.209 215.49C426.393 213.57 425.985 211.53 425.985 209.37C425.985 207.21 426.393 205.17 427.209 203.25C428.073 201.33 429.225 199.65 430.665 198.21C432.105 196.77 433.761 195.642 435.633 194.826C437.553 193.962 439.593 193.53 441.753 193.53C445.161 193.53 448.113 194.562 450.609 196.626C453.153 198.642 454.977 201.306 456.081 204.618C454.593 205.146 452.889 205.794 450.969 206.562C449.049 207.33 447.057 208.146 444.993 209.01C442.929 209.826 440.865 210.642 438.801 211.458C436.737 212.274 434.817 213.018 433.041 213.69C433.857 215.322 435.033 216.642 436.569 217.65C438.153 218.61 439.905 219.09 441.825 219.09C443.121 219.09 444.417 218.85 445.713 218.37C447.057 217.89 448.137 217.242 448.953 216.426L453.561 220.89ZM448.377 203.178C447.801 201.978 446.889 201.09 445.641 200.514C444.393 199.89 443.121 199.578 441.825 199.578C440.433 199.578 439.137 199.842 437.937 200.37C436.785 200.898 435.777 201.618 434.913 202.53C434.049 203.394 433.353 204.402 432.825 205.554C432.345 206.706 432.105 207.882 432.105 209.082C432.105 209.322 432.105 209.49 432.105 209.586C432.153 209.682 432.177 209.754 432.177 209.802C433.425 209.322 434.769 208.794 436.209 208.218C437.697 207.594 439.161 206.994 440.601 206.418C442.041 205.794 443.433 205.218 444.777 204.69C446.121 204.114 447.321 203.61 448.377 203.178ZM459.386 209.37C459.386 207.018 459.77 204.882 460.538 202.962C461.354 200.994 462.458 199.314 463.85 197.922C465.242 196.53 466.874 195.45 468.746 194.682C470.666 193.914 472.73 193.53 474.938 193.53C476.426 193.53 477.746 193.722 478.898 194.106C480.098 194.442 481.106 194.874 481.922 195.402C482.786 195.882 483.506 196.434 484.082 197.058C484.658 197.682 485.09 198.234 485.378 198.714V168.474H491.57V224.418H485.378V222.186C485.378 221.898 485.402 221.586 485.45 221.25C485.498 220.866 485.522 220.554 485.522 220.314C485.042 220.89 484.466 221.466 483.794 222.042C483.17 222.57 482.426 223.074 481.562 223.554C480.698 224.034 479.69 224.418 478.538 224.706C477.434 224.994 476.162 225.138 474.722 225.138C472.322 225.138 470.162 224.73 468.242 223.914C466.37 223.05 464.762 221.922 463.418 220.53C462.122 219.09 461.114 217.41 460.394 215.49C459.722 213.57 459.386 211.53 459.386 209.37ZM465.578 209.298C465.578 210.69 465.818 211.986 466.298 213.186C466.826 214.386 467.522 215.418 468.386 216.282C469.25 217.146 470.282 217.842 471.482 218.37C472.682 218.85 474.002 219.09 475.442 219.09C476.882 219.09 478.202 218.85 479.402 218.37C480.65 217.842 481.706 217.146 482.57 216.282C483.482 215.37 484.178 214.338 484.658 213.186C485.138 211.986 485.378 210.69 485.378 209.298C485.378 207.906 485.138 206.634 484.658 205.482C484.178 204.282 483.482 203.25 482.57 202.386C481.706 201.522 480.65 200.85 479.402 200.37C478.202 199.842 476.882 199.578 475.442 199.578C474.002 199.578 472.682 199.842 471.482 200.37C470.282 200.85 469.25 201.522 468.386 202.386C467.522 203.25 466.826 204.282 466.298 205.482C465.818 206.634 465.578 207.906 465.578 209.298ZM498.126 209.298C498.126 207.138 498.534 205.098 499.35 203.178C500.214 201.258 501.366 199.602 502.806 198.21C504.246 196.77 505.926 195.642 507.846 194.826C509.814 193.962 511.926 193.53 514.182 193.53C516.438 193.53 518.526 193.962 520.446 194.826C522.414 195.642 524.094 196.77 525.486 198.21C526.926 199.602 528.03 201.258 528.798 203.178C529.614 205.098 530.022 207.138 530.022 209.298C530.022 211.458 529.614 213.498 528.798 215.418C528.03 217.338 526.926 219.018 525.486 220.458C524.094 221.898 522.414 223.05 520.446 223.914C518.526 224.73 516.414 225.138 514.11 225.138C511.902 225.138 509.814 224.754 507.846 223.986C505.926 223.218 504.246 222.138 502.806 220.746C501.366 219.354 500.214 217.698 499.35 215.778C498.534 213.81 498.126 211.65 498.126 209.298ZM504.246 209.37C504.246 210.714 504.486 211.986 504.966 213.186C505.494 214.338 506.19 215.37 507.054 216.282C507.966 217.146 508.998 217.842 510.15 218.37C511.35 218.85 512.622 219.09 513.966 219.09C515.31 219.09 516.582 218.85 517.782 218.37C518.982 217.842 520.014 217.146 520.878 216.282C521.79 215.37 522.51 214.338 523.038 213.186C523.566 211.986 523.83 210.714 523.83 209.37C523.83 208.026 523.566 206.754 523.038 205.554C522.51 204.354 521.79 203.322 520.878 202.458C520.014 201.546 518.982 200.85 517.782 200.37C516.582 199.842 515.31 199.578 513.966 199.578C512.622 199.578 511.35 199.842 510.15 200.37C508.998 200.85 507.966 201.546 507.054 202.458C506.19 203.322 505.494 204.354 504.966 205.554C504.486 206.754 504.246 208.026 504.246 209.37Z" fill="white"/>
<path d="M124.138 167.8C124.474 168.616 125.026 169.96 125.794 171.832C126.562 173.656 127.426 175.744 128.386 178.096C129.394 180.448 130.426 182.944 131.482 185.584C132.586 188.224 133.618 190.72 134.578 193.072C135.538 195.424 136.402 197.536 137.17 199.408C137.938 201.232 138.49 202.552 138.826 203.368C138.874 203.464 138.994 203.8 139.186 204.376C139.378 204.952 139.522 205.456 139.618 205.888L140.338 203.368C140.674 202.552 141.226 201.232 141.994 199.408C142.762 197.536 143.626 195.424 144.586 193.072C145.546 190.72 146.554 188.224 147.61 185.584C148.714 182.944 149.746 180.448 150.706 178.096C151.714 175.744 152.602 173.656 153.37 171.832C154.138 169.96 154.69 168.616 155.026 167.8H162.802C162.514 168.472 161.986 169.696 161.218 171.472C160.498 173.2 159.61 175.312 158.554 177.808C157.498 180.304 156.322 183.04 155.026 186.016C153.778 188.992 152.482 192.016 151.138 195.088C149.842 198.16 148.546 201.184 147.25 204.16C146.002 207.136 144.85 209.872 143.794 212.368C142.786 214.864 141.898 217 141.13 218.776C140.41 220.504 139.906 221.704 139.618 222.376L116.362 167.8H124.138ZM185.331 216.472C183.891 217.768 182.139 218.8 180.075 219.568C178.011 220.336 175.899 220.72 173.739 220.72C171.531 220.72 169.443 220.312 167.475 219.496C165.555 218.632 163.875 217.504 162.435 216.112C160.995 214.672 159.843 212.992 158.979 211.072C158.163 209.152 157.755 207.112 157.755 204.952C157.755 202.792 158.163 200.752 158.979 198.832C159.843 196.912 160.995 195.232 162.435 193.792C163.875 192.352 165.531 191.224 167.403 190.408C169.323 189.544 171.363 189.112 173.523 189.112C176.931 189.112 179.883 190.144 182.379 192.208C184.923 194.224 186.747 196.888 187.851 200.2C186.363 200.728 184.659 201.376 182.739 202.144C180.819 202.912 178.827 203.728 176.763 204.592C174.699 205.408 172.635 206.224 170.571 207.04C168.507 207.856 166.587 208.6 164.811 209.272C165.627 210.904 166.803 212.224 168.339 213.232C169.923 214.192 171.675 214.672 173.595 214.672C174.891 214.672 176.187 214.432 177.483 213.952C178.827 213.472 179.907 212.824 180.723 212.008L185.331 216.472ZM180.147 198.76C179.571 197.56 178.659 196.672 177.411 196.096C176.163 195.472 174.891 195.16 173.595 195.16C172.203 195.16 170.907 195.424 169.707 195.952C168.555 196.48 167.547 197.2 166.683 198.112C165.819 198.976 165.123 199.984 164.595 201.136C164.115 202.288 163.875 203.464 163.875 204.664C163.875 204.904 163.875 205.072 163.875 205.168C163.923 205.264 163.947 205.336 163.947 205.384C165.195 204.904 166.539 204.376 167.979 203.8C169.467 203.176 170.931 202.576 172.371 202C173.811 201.376 175.203 200.8 176.547 200.272C177.891 199.696 179.091 199.192 180.147 198.76ZM193.171 189.904H198.571C198.667 191.392 198.739 192.76 198.787 194.008C198.883 195.208 198.979 196.408 199.075 197.608C200.179 195.016 201.739 192.952 203.755 191.416C205.819 189.88 208.339 189.112 211.315 189.112C214.339 189.112 216.763 189.952 218.587 191.632C220.411 193.312 221.371 195.472 221.467 198.112V220H215.275V200.92C215.179 199.384 214.651 198.088 213.691 197.032C212.731 195.928 211.219 195.328 209.155 195.232C207.715 195.232 206.395 195.496 205.195 196.024C203.995 196.504 202.963 197.176 202.099 198.04C201.235 198.904 200.539 199.936 200.011 201.136C199.531 202.336 199.291 203.656 199.291 205.096V220H193.171V189.904ZM229.804 189.904H235.204C235.3 191.392 235.372 192.76 235.42 194.008C235.516 195.208 235.612 196.408 235.708 197.608C236.812 195.016 238.372 192.952 240.388 191.416C242.452 189.88 244.972 189.112 247.948 189.112C250.972 189.112 253.396 189.952 255.22 191.632C257.044 193.312 258.004 195.472 258.1 198.112V220H251.908V200.92C251.812 199.384 251.284 198.088 250.324 197.032C249.364 195.928 247.852 195.328 245.788 195.232C244.348 195.232 243.028 195.496 241.828 196.024C240.628 196.504 239.596 197.176 238.732 198.04C237.868 198.904 237.172 199.936 236.644 201.136C236.164 202.336 235.924 203.656 235.924 205.096V220H229.804V189.904Z" fill="white"/>
</svg>
