<svg width="1440" height="1024" viewBox="0 0 1440 1024" fill="none" xmlns="http://www.w3.org/2000/svg">
<g clip-path="url(#clip0)">
<rect width="1440" height="1024" fill="#0B132B"/>
<path d="M806.5 396L905.66 453.75V569.25L806.5 627L707.34 569.25V453.75L806.5 396Z" fill="#3A506B"/>
<path d="M1264.5 0L1363.66 57.75V173.25L1264.5 231L1165.34 173.25V57.75L1264.5 0Z" fill="#3A506B"/>
<path d="M1034.5 0L1133.66 57.75V173.25L1034.5 231L935.34 173.25V57.75L1034.5 0Z" fill="#3A506B"/>
<path d="M693.5 601L792.66 658.75V774.25L693.5 832L594.34 774.25V658.75L693.5 601Z" fill="#3A506B"/>
<path d="M807.5 802L906.66 859.75V975.25L807.5 1033L708.34 975.25V859.75L807.5 802Z" fill="#3A506B"/>
<path d="M1257.5 802L1356.66 859.75V975.25L1257.5 1033L1158.34 975.25V859.75L1257.5 802Z" fill="#3A506B"/>
<path d="M1372.5 611L1471.66 668.75V784.25L1372.5 842L1273.34 784.25V668.75L1372.5 611Z" fill="#3A506B"/>
<path d="M1372.5 198L1471.66 255.75V371.25L1372.5 429L1273.34 371.25V255.75L1372.5 198Z" fill="#3A506B"/>
<path d="M693.5 198L792.66 255.75V371.25L693.5 429L594.34 371.25V255.75L693.5 198Z" fill="#3A506B"/>
<path d="M1035.5 396L1134.66 453.75V569.25L1035.5 627L936.34 569.25V453.75L1035.5 396Z" fill="#5BC0BE"/>
<path d="M1150.5 601L1249.66 658.75V774.25L1150.5 832L1051.34 774.25V658.75L1150.5 601Z" fill="#3A506B"/>
<path d="M1264.5 396L1363.66 453.75V569.25L1264.5 627L1165.34 569.25V453.75L1264.5 396Z" fill="#3A506B"/>
<path d="M1149.5 198L1248.66 255.75V371.25L1149.5 429L1050.34 371.25V255.75L1149.5 198Z" fill="#3A506B"/>
<path d="M921.5 601L1020.66 658.75V774.25L921.5 832L822.34 774.25V658.75L921.5 601Z" fill="#3A506B"/>
<path d="M921.5 192L1020.66 249.75V365.25L921.5 423L822.34 365.25V249.75L921.5 192Z" fill="#3A506B"/>
<path d="M1068.56 480.714C1071.34 482.229 1071.34 486.222 1068.56 487.738L1022.02 513.104C1019.36 514.557 1016.11 512.627 1016.11 509.592V458.86C1016.11 455.824 1019.36 453.895 1022.02 455.348L1068.56 480.714Z" stroke="white" stroke-width="8"/>
<path d="M984.449 557.301C983.668 557.965 982.797 558.477 981.836 558.836C980.875 559.188 979.875 559.363 978.836 559.363C978.039 559.363 977.27 559.258 976.527 559.047C975.793 558.844 975.105 558.555 974.465 558.18C973.824 557.797 973.238 557.344 972.707 556.82C972.176 556.289 971.723 555.703 971.348 555.062C970.973 554.414 970.68 553.719 970.469 552.977C970.266 552.234 970.164 551.465 970.164 550.668C970.164 549.871 970.266 549.105 970.469 548.371C970.68 547.637 970.973 546.949 971.348 546.309C971.723 545.66 972.176 545.074 972.707 544.551C973.238 544.02 973.824 543.566 974.465 543.191C975.105 542.816 975.793 542.527 976.527 542.324C977.27 542.113 978.039 542.008 978.836 542.008C979.875 542.008 980.875 542.188 981.836 542.547C982.797 542.898 983.668 543.406 984.449 544.07L982.691 547C982.184 546.484 981.598 546.082 980.934 545.793C980.27 545.496 979.57 545.348 978.836 545.348C978.102 545.348 977.41 545.488 976.762 545.77C976.121 546.051 975.559 546.434 975.074 546.918C974.59 547.395 974.207 547.957 973.926 548.605C973.645 549.246 973.504 549.934 973.504 550.668C973.504 551.41 973.645 552.105 973.926 552.754C974.207 553.402 974.59 553.969 975.074 554.453C975.559 554.938 976.121 555.32 976.762 555.602C977.41 555.883 978.102 556.023 978.836 556.023C979.258 556.023 979.668 555.973 980.066 555.871C980.465 555.77 980.844 555.629 981.203 555.449V550.668H984.449V557.301ZM991.691 555.93C991.816 555.969 991.941 555.996 992.066 556.012C992.191 556.02 992.316 556.023 992.441 556.023C992.754 556.023 993.055 555.98 993.344 555.895C993.633 555.809 993.902 555.688 994.152 555.531C994.41 555.367 994.637 555.172 994.832 554.945C995.035 554.711 995.199 554.453 995.324 554.172L997.668 556.527C997.371 556.949 997.027 557.328 996.637 557.664C996.254 558 995.836 558.285 995.383 558.52C994.938 558.754 994.465 558.93 993.965 559.047C993.473 559.172 992.965 559.234 992.441 559.234C991.559 559.234 990.727 559.07 989.945 558.742C989.172 558.414 988.492 557.957 987.906 557.371C987.328 556.785 986.871 556.09 986.535 555.285C986.199 554.473 986.031 553.582 986.031 552.613C986.031 551.621 986.199 550.715 986.535 549.895C986.871 549.074 987.328 548.375 987.906 547.797C988.492 547.219 989.172 546.77 989.945 546.449C990.727 546.129 991.559 545.969 992.441 545.969C992.965 545.969 993.477 546.031 993.977 546.156C994.477 546.281 994.949 546.461 995.395 546.695C995.848 546.93 996.27 547.219 996.66 547.562C997.051 547.898 997.395 548.277 997.691 548.699L991.691 555.93ZM993.332 549.332C993.184 549.277 993.035 549.242 992.887 549.227C992.746 549.211 992.598 549.203 992.441 549.203C992.004 549.203 991.59 549.285 991.199 549.449C990.816 549.605 990.48 549.832 990.191 550.129C989.91 550.426 989.688 550.785 989.523 551.207C989.359 551.621 989.277 552.09 989.277 552.613C989.277 552.73 989.281 552.863 989.289 553.012C989.305 553.16 989.324 553.312 989.348 553.469C989.379 553.617 989.414 553.762 989.453 553.902C989.492 554.043 989.543 554.168 989.605 554.277L993.332 549.332ZM1005.6 559C1004.83 559 1004.1 558.855 1003.42 558.566C1002.74 558.27 1002.14 557.867 1001.63 557.359C1001.12 556.844 1000.72 556.246 1000.42 555.566C1000.13 554.887 999.988 554.16 999.988 553.387V549.66H998.43V546.473H999.988V541.457H1003.18V546.473H1008.03V549.66H1003.18V553.387C1003.18 553.723 1003.24 554.039 1003.36 554.336C1003.49 554.625 1003.66 554.879 1003.88 555.098C1004.1 555.316 1004.36 555.492 1004.65 555.625C1004.95 555.75 1005.27 555.812 1005.6 555.812H1008.03V559H1005.6ZM1015.91 547.234C1015.91 546.539 1016.05 545.887 1016.31 545.277C1016.58 544.668 1016.94 544.137 1017.39 543.684C1017.85 543.223 1018.39 542.859 1019 542.594C1019.61 542.328 1020.26 542.195 1020.95 542.195H1028.66V545.559H1020.95C1020.72 545.559 1020.5 545.602 1020.3 545.688C1020.09 545.773 1019.91 545.895 1019.76 546.051C1019.61 546.199 1019.49 546.375 1019.41 546.578C1019.32 546.781 1019.28 547 1019.28 547.234C1019.28 547.469 1019.32 547.691 1019.41 547.902C1019.49 548.105 1019.61 548.285 1019.76 548.441C1019.91 548.59 1020.09 548.707 1020.3 548.793C1020.5 548.879 1020.72 548.922 1020.95 548.922H1024.32C1025.01 548.922 1025.66 549.055 1026.27 549.32C1026.89 549.578 1027.43 549.938 1027.88 550.398C1028.34 550.852 1028.7 551.387 1028.96 552.004C1029.22 552.613 1029.36 553.266 1029.36 553.961C1029.36 554.656 1029.22 555.309 1028.96 555.918C1028.7 556.527 1028.34 557.062 1027.88 557.523C1027.43 557.977 1026.89 558.336 1026.27 558.602C1025.66 558.867 1025.01 559 1024.32 559H1016.85V555.637H1024.32C1024.55 555.637 1024.77 555.594 1024.97 555.508C1025.18 555.422 1025.35 555.305 1025.5 555.156C1025.66 555 1025.78 554.82 1025.86 554.617C1025.95 554.414 1025.99 554.195 1025.99 553.961C1025.99 553.727 1025.95 553.508 1025.86 553.305C1025.78 553.102 1025.66 552.926 1025.5 552.777C1025.35 552.621 1025.18 552.5 1024.97 552.414C1024.77 552.328 1024.55 552.285 1024.32 552.285H1020.95C1020.26 552.285 1019.61 552.152 1019 551.887C1018.39 551.621 1017.85 551.262 1017.39 550.809C1016.94 550.348 1016.58 549.812 1016.31 549.203C1016.05 548.586 1015.91 547.93 1015.91 547.234ZM1037.31 559C1036.54 559 1035.81 558.855 1035.13 558.566C1034.45 558.27 1033.86 557.867 1033.34 557.359C1032.83 556.844 1032.43 556.246 1032.13 555.566C1031.84 554.887 1031.7 554.16 1031.7 553.387V549.66H1030.14V546.473H1031.7V541.457H1034.89V546.473H1039.74V549.66H1034.89V553.387C1034.89 553.723 1034.95 554.039 1035.07 554.336C1035.2 554.625 1035.37 554.879 1035.59 555.098C1035.81 555.316 1036.07 555.492 1036.36 555.625C1036.66 555.75 1036.98 555.812 1037.31 555.812H1039.74V559H1037.31ZM1053.7 559H1052.92L1051.68 557.277C1051.38 557.551 1051.05 557.809 1050.71 558.051C1050.37 558.285 1050.02 558.492 1049.64 558.672C1049.27 558.844 1048.88 558.98 1048.48 559.082C1048.09 559.184 1047.69 559.234 1047.29 559.234C1046.4 559.234 1045.57 559.086 1044.79 558.789C1044.02 558.492 1043.34 558.062 1042.75 557.5C1042.17 556.93 1041.71 556.234 1041.38 555.414C1041.04 554.594 1040.88 553.66 1040.88 552.613C1040.88 551.637 1041.04 550.742 1041.38 549.93C1041.71 549.109 1042.17 548.406 1042.75 547.82C1043.34 547.234 1044.02 546.781 1044.79 546.461C1045.57 546.133 1046.4 545.969 1047.29 545.969C1047.69 545.969 1048.09 546.02 1048.49 546.121C1048.89 546.223 1049.28 546.363 1049.65 546.543C1050.03 546.723 1050.38 546.934 1050.72 547.176C1051.06 547.418 1051.38 547.68 1051.68 547.961L1052.92 546.473H1053.7V559ZM1050.47 552.613C1050.47 552.176 1050.39 551.754 1050.21 551.348C1050.05 550.934 1049.82 550.57 1049.54 550.258C1049.25 549.938 1048.91 549.684 1048.52 549.496C1048.13 549.301 1047.72 549.203 1047.29 549.203C1046.85 549.203 1046.43 549.277 1046.04 549.426C1045.66 549.574 1045.32 549.793 1045.04 550.082C1044.75 550.371 1044.53 550.73 1044.37 551.16C1044.2 551.582 1044.12 552.066 1044.12 552.613C1044.12 553.16 1044.2 553.648 1044.37 554.078C1044.53 554.5 1044.75 554.855 1045.04 555.145C1045.32 555.434 1045.66 555.652 1046.04 555.801C1046.43 555.949 1046.85 556.023 1047.29 556.023C1047.72 556.023 1048.13 555.93 1048.52 555.742C1048.91 555.547 1049.25 555.293 1049.54 554.98C1049.82 554.66 1050.05 554.297 1050.21 553.891C1050.39 553.477 1050.47 553.051 1050.47 552.613ZM1059.34 559H1056.14V546.449H1056.92L1057.97 547.938C1058.49 547.469 1059.07 547.109 1059.73 546.859C1060.39 546.602 1061.07 546.473 1061.77 546.473H1064.59V549.66H1061.77C1061.43 549.66 1061.12 549.723 1060.82 549.848C1060.52 549.973 1060.27 550.145 1060.05 550.363C1059.83 550.582 1059.66 550.84 1059.53 551.137C1059.41 551.434 1059.34 551.75 1059.34 552.086V559ZM1072.38 559C1071.6 559 1070.88 558.855 1070.2 558.566C1069.52 558.27 1068.92 557.867 1068.4 557.359C1067.89 556.844 1067.49 556.246 1067.2 555.566C1066.91 554.887 1066.76 554.16 1066.76 553.387V549.66H1065.2V546.473H1066.76V541.457H1069.95V546.473H1074.8V549.66H1069.95V553.387C1069.95 553.723 1070.01 554.039 1070.14 554.336C1070.26 554.625 1070.43 554.879 1070.65 555.098C1070.87 555.316 1071.13 555.492 1071.43 555.625C1071.72 555.75 1072.04 555.812 1072.38 555.812H1074.8V559H1072.38ZM1081.6 555.93C1081.72 555.969 1081.85 555.996 1081.97 556.012C1082.1 556.02 1082.22 556.023 1082.35 556.023C1082.66 556.023 1082.96 555.98 1083.25 555.895C1083.54 555.809 1083.81 555.688 1084.06 555.531C1084.32 555.367 1084.54 555.172 1084.74 554.945C1084.94 554.711 1085.11 554.453 1085.23 554.172L1087.57 556.527C1087.28 556.949 1086.93 557.328 1086.54 557.664C1086.16 558 1085.74 558.285 1085.29 558.52C1084.84 558.754 1084.37 558.93 1083.87 559.047C1083.38 559.172 1082.87 559.234 1082.35 559.234C1081.46 559.234 1080.63 559.07 1079.85 558.742C1079.08 558.414 1078.4 557.957 1077.81 557.371C1077.23 556.785 1076.78 556.09 1076.44 555.285C1076.11 554.473 1075.94 553.582 1075.94 552.613C1075.94 551.621 1076.11 550.715 1076.44 549.895C1076.78 549.074 1077.23 548.375 1077.81 547.797C1078.4 547.219 1079.08 546.77 1079.85 546.449C1080.63 546.129 1081.46 545.969 1082.35 545.969C1082.87 545.969 1083.38 546.031 1083.88 546.156C1084.38 546.281 1084.86 546.461 1085.3 546.695C1085.75 546.93 1086.18 547.219 1086.57 547.562C1086.96 547.898 1087.3 548.277 1087.6 548.699L1081.6 555.93ZM1083.24 549.332C1083.09 549.277 1082.94 549.242 1082.79 549.227C1082.65 549.211 1082.5 549.203 1082.35 549.203C1081.91 549.203 1081.5 549.285 1081.11 549.449C1080.72 549.605 1080.39 549.832 1080.1 550.129C1079.82 550.426 1079.59 550.785 1079.43 551.207C1079.27 551.621 1079.18 552.09 1079.18 552.613C1079.18 552.73 1079.19 552.863 1079.2 553.012C1079.21 553.16 1079.23 553.312 1079.25 553.469C1079.29 553.617 1079.32 553.762 1079.36 553.902C1079.4 554.043 1079.45 554.168 1079.51 554.277L1083.24 549.332ZM1101.25 559H1100.48L1099.23 557.277C1098.93 557.551 1098.61 557.809 1098.26 558.051C1097.93 558.285 1097.57 558.492 1097.2 558.672C1096.82 558.844 1096.43 558.98 1096.04 559.082C1095.64 559.184 1095.25 559.234 1094.84 559.234C1093.96 559.234 1093.12 559.07 1092.34 558.742C1091.57 558.406 1090.89 557.945 1090.3 557.359C1089.73 556.766 1089.27 556.066 1088.93 555.262C1088.6 554.449 1088.43 553.566 1088.43 552.613C1088.43 551.668 1088.6 550.789 1088.93 549.977C1089.27 549.164 1089.73 548.461 1090.3 547.867C1090.89 547.273 1091.57 546.809 1092.34 546.473C1093.12 546.137 1093.96 545.969 1094.84 545.969C1095.12 545.969 1095.41 545.992 1095.71 546.039C1096.01 546.086 1096.3 546.164 1096.59 546.273C1096.88 546.375 1097.14 546.512 1097.39 546.684C1097.64 546.855 1097.86 547.066 1098.03 547.316V541.457H1101.25V559ZM1098.03 552.613C1098.03 552.176 1097.94 551.754 1097.77 551.348C1097.61 550.934 1097.38 550.57 1097.09 550.258C1096.8 549.938 1096.46 549.684 1096.07 549.496C1095.69 549.301 1095.28 549.203 1094.84 549.203C1094.4 549.203 1093.99 549.281 1093.6 549.438C1093.21 549.594 1092.88 549.82 1092.59 550.117C1092.31 550.406 1092.09 550.762 1091.92 551.184C1091.76 551.605 1091.68 552.082 1091.68 552.613C1091.68 553.074 1091.76 553.512 1091.92 553.926C1092.09 554.34 1092.31 554.703 1092.59 555.016C1092.88 555.328 1093.21 555.574 1093.6 555.754C1093.99 555.934 1094.4 556.023 1094.84 556.023C1095.28 556.023 1095.69 555.93 1096.07 555.742C1096.46 555.547 1096.8 555.293 1097.09 554.98C1097.38 554.66 1097.61 554.297 1097.77 553.891C1097.94 553.477 1098.03 553.051 1098.03 552.613Z" fill="white"/>
<path d="M99.5841 508.8C99.9201 509.616 100.472 510.96 101.24 512.832C102.008 514.656 102.872 516.744 103.832 519.096C104.84 521.448 105.872 523.944 106.928 526.584C108.032 529.224 109.064 531.72 110.024 534.072C110.984 536.424 111.848 538.536 112.616 540.408C113.384 542.232 113.936 543.552 114.272 544.368C114.32 544.464 114.44 544.8 114.632 545.376C114.824 545.952 114.968 546.456 115.064 546.888L115.784 544.368C116.12 543.552 116.672 542.232 117.44 540.408C118.208 538.536 119.072 536.424 120.032 534.072C120.992 531.72 122 529.224 123.056 526.584C124.16 523.944 125.192 521.448 126.152 519.096C127.16 516.744 128.048 514.656 128.816 512.832C129.584 510.96 130.136 509.616 130.472 508.8H138.248C137.96 509.472 137.432 510.696 136.664 512.472C135.944 514.2 135.056 516.312 134 518.808C132.944 521.304 131.768 524.04 130.472 527.016C129.224 529.992 127.928 533.016 126.584 536.088C125.288 539.16 123.992 542.184 122.696 545.16C121.448 548.136 120.296 550.872 119.24 553.368C118.232 555.864 117.344 558 116.576 559.776C115.856 561.504 115.352 562.704 115.064 563.376L91.8081 508.8H99.5841ZM139.348 519.384C139.348 518.232 139.756 517.272 140.572 516.504C141.436 515.736 142.348 515.352 143.308 515.352C144.268 515.352 145.156 515.736 145.972 516.504C146.788 517.272 147.196 518.232 147.196 519.384C147.196 520.536 146.788 521.496 145.972 522.264C145.156 522.984 144.268 523.344 143.308 523.344C142.348 523.344 141.436 522.984 140.572 522.264C139.756 521.496 139.348 520.536 139.348 519.384ZM146.26 561H140.14V530.904H146.26V561ZM152.89 545.952C152.89 543.6 153.274 541.464 154.042 539.544C154.858 537.576 155.962 535.896 157.354 534.504C158.746 533.112 160.378 532.032 162.25 531.264C164.17 530.496 166.234 530.112 168.442 530.112C169.93 530.112 171.25 530.304 172.402 530.688C173.602 531.024 174.61 531.456 175.426 531.984C176.29 532.464 177.01 533.016 177.586 533.64C178.162 534.264 178.594 534.816 178.882 535.296V505.056H185.074V561H178.882V558.768C178.882 558.48 178.906 558.168 178.954 557.832C179.002 557.448 179.026 557.136 179.026 556.896C178.546 557.472 177.97 558.048 177.298 558.624C176.674 559.152 175.93 559.656 175.066 560.136C174.202 560.616 173.194 561 172.042 561.288C170.938 561.576 169.666 561.72 168.226 561.72C165.826 561.72 163.666 561.312 161.746 560.496C159.874 559.632 158.266 558.504 156.922 557.112C155.626 555.672 154.618 553.992 153.898 552.072C153.226 550.152 152.89 548.112 152.89 545.952ZM159.082 545.88C159.082 547.272 159.322 548.568 159.802 549.768C160.33 550.968 161.026 552 161.89 552.864C162.754 553.728 163.786 554.424 164.986 554.952C166.186 555.432 167.506 555.672 168.946 555.672C170.386 555.672 171.706 555.432 172.906 554.952C174.154 554.424 175.21 553.728 176.074 552.864C176.986 551.952 177.682 550.92 178.162 549.768C178.642 548.568 178.882 547.272 178.882 545.88C178.882 544.488 178.642 543.216 178.162 542.064C177.682 540.864 176.986 539.832 176.074 538.968C175.21 538.104 174.154 537.432 172.906 536.952C171.706 536.424 170.386 536.16 168.946 536.16C167.506 536.16 166.186 536.424 164.986 536.952C163.786 537.432 162.754 538.104 161.89 538.968C161.026 539.832 160.33 540.864 159.802 542.064C159.322 543.216 159.082 544.488 159.082 545.88ZM219.206 557.472C217.766 558.768 216.014 559.8 213.95 560.568C211.886 561.336 209.774 561.72 207.614 561.72C205.406 561.72 203.318 561.312 201.35 560.496C199.43 559.632 197.75 558.504 196.31 557.112C194.87 555.672 193.718 553.992 192.854 552.072C192.038 550.152 191.63 548.112 191.63 545.952C191.63 543.792 192.038 541.752 192.854 539.832C193.718 537.912 194.87 536.232 196.31 534.792C197.75 533.352 199.406 532.224 201.278 531.408C203.198 530.544 205.238 530.112 207.398 530.112C210.806 530.112 213.758 531.144 216.254 533.208C218.798 535.224 220.622 537.888 221.726 541.2C220.238 541.728 218.534 542.376 216.614 543.144C214.694 543.912 212.702 544.728 210.638 545.592C208.574 546.408 206.51 547.224 204.446 548.04C202.382 548.856 200.462 549.6 198.686 550.272C199.502 551.904 200.678 553.224 202.214 554.232C203.798 555.192 205.55 555.672 207.47 555.672C208.766 555.672 210.062 555.432 211.358 554.952C212.702 554.472 213.782 553.824 214.598 553.008L219.206 557.472ZM214.022 539.76C213.446 538.56 212.534 537.672 211.286 537.096C210.038 536.472 208.766 536.16 207.47 536.16C206.078 536.16 204.782 536.424 203.582 536.952C202.43 537.48 201.422 538.2 200.558 539.112C199.694 539.976 198.998 540.984 198.47 542.136C197.99 543.288 197.75 544.464 197.75 545.664C197.75 545.904 197.75 546.072 197.75 546.168C197.798 546.264 197.822 546.336 197.822 546.384C199.07 545.904 200.414 545.376 201.854 544.8C203.342 544.176 204.806 543.576 206.246 543C207.686 542.376 209.078 541.8 210.422 541.272C211.766 540.696 212.966 540.192 214.022 539.76ZM224.959 545.88C224.959 543.72 225.367 541.68 226.183 539.76C227.047 537.84 228.199 536.184 229.639 534.792C231.079 533.352 232.759 532.224 234.679 531.408C236.647 530.544 238.759 530.112 241.015 530.112C243.271 530.112 245.359 530.544 247.279 531.408C249.247 532.224 250.927 533.352 252.319 534.792C253.759 536.184 254.863 537.84 255.631 539.76C256.447 541.68 256.855 543.72 256.855 545.88C256.855 548.04 256.447 550.08 255.631 552C254.863 553.92 253.759 555.6 252.319 557.04C250.927 558.48 249.247 559.632 247.279 560.496C245.359 561.312 243.247 561.72 240.943 561.72C238.735 561.72 236.647 561.336 234.679 560.568C232.759 559.8 231.079 558.72 229.639 557.328C228.199 555.936 227.047 554.28 226.183 552.36C225.367 550.392 224.959 548.232 224.959 545.88ZM231.079 545.952C231.079 547.296 231.319 548.568 231.799 549.768C232.327 550.92 233.023 551.952 233.887 552.864C234.799 553.728 235.831 554.424 236.983 554.952C238.183 555.432 239.455 555.672 240.799 555.672C242.143 555.672 243.415 555.432 244.615 554.952C245.815 554.424 246.847 553.728 247.711 552.864C248.623 551.952 249.343 550.92 249.871 549.768C250.399 548.568 250.663 547.296 250.663 545.952C250.663 544.608 250.399 543.336 249.871 542.136C249.343 540.936 248.623 539.904 247.711 539.04C246.847 538.128 245.815 537.432 244.615 536.952C243.415 536.424 242.143 536.16 240.799 536.16C239.455 536.16 238.183 536.424 236.983 536.952C235.831 537.432 234.799 538.128 233.887 539.04C233.023 539.904 232.327 540.936 231.799 542.136C231.319 543.336 231.079 544.608 231.079 545.952ZM311.96 511.68L309.152 518.088C307.184 517.368 305.216 516.792 303.248 516.36C301.328 515.928 299.48 515.712 297.704 515.712C294.68 515.712 292.256 516.336 290.432 517.584C288.656 518.832 287.768 520.416 287.768 522.336C287.768 523.968 288.416 525.288 289.712 526.296C291.008 527.256 292.616 528.144 294.536 528.96C296.456 529.728 298.544 530.52 300.8 531.336C303.056 532.104 305.144 533.112 307.064 534.36C308.984 535.608 310.592 537.192 311.888 539.112C313.184 540.984 313.832 543.408 313.832 546.384C313.832 548.688 313.4 550.776 312.536 552.648C311.72 554.472 310.472 556.056 308.792 557.4C307.16 558.744 305.096 559.776 302.6 560.496C300.152 561.216 297.272 561.576 293.96 561.576C291.848 561.576 289.928 561.432 288.2 561.144C286.52 560.856 284.984 560.496 283.592 560.064C282.248 559.584 281.048 559.08 279.992 558.552C278.984 558.024 278.12 557.544 277.4 557.112L280.856 550.272C282.776 551.376 284.912 552.264 287.264 552.936C289.616 553.608 291.752 553.944 293.672 553.944C294.632 553.944 295.808 553.824 297.2 553.584C298.64 553.344 300.008 552.936 301.304 552.36C302.6 551.736 303.704 550.92 304.616 549.912C305.576 548.904 306.056 547.632 306.056 546.096C306.056 544.704 305.672 543.528 304.904 542.568C304.184 541.56 303.2 540.696 301.952 539.976C300.752 539.208 299.36 538.536 297.776 537.96C296.24 537.336 294.656 536.712 293.024 536.088C291.392 535.416 289.784 534.72 288.2 534C286.664 533.28 285.272 532.416 284.024 531.408C282.824 530.352 281.84 529.152 281.072 527.808C280.352 526.416 279.992 524.76 279.992 522.84C279.992 521.064 280.352 519.312 281.072 517.584C281.792 515.856 282.872 514.32 284.312 512.976C285.752 511.632 287.528 510.552 289.64 509.736C291.8 508.92 294.296 508.512 297.128 508.512C298.856 508.512 300.536 508.656 302.168 508.944C303.848 509.232 305.36 509.568 306.704 509.952C308.048 510.288 309.176 510.624 310.088 510.96C311.048 511.296 311.672 511.536 311.96 511.68ZM322.1 517.656H328.22V530.976H336.284V536.448H328.22V561H322.1V536.448H316.7V530.976H322.1V517.656ZM357.935 538.032C356.591 538.032 355.295 538.224 354.047 538.608C352.799 538.944 351.671 539.472 350.663 540.192C349.703 540.912 348.935 541.824 348.359 542.928C347.783 543.984 347.495 545.208 347.495 546.6V561H341.375V530.904H346.775C346.871 532.392 346.943 533.76 346.991 535.008C347.087 536.208 347.183 537.408 347.279 538.608C347.903 537.312 348.719 536.136 349.727 535.08C350.735 534.024 351.815 533.136 352.967 532.416C354.119 531.696 355.247 531.144 356.351 530.76C357.455 530.328 358.439 530.112 359.303 530.112L357.935 538.032ZM388.66 557.472C387.22 558.768 385.468 559.8 383.404 560.568C381.34 561.336 379.228 561.72 377.068 561.72C374.86 561.72 372.772 561.312 370.804 560.496C368.884 559.632 367.204 558.504 365.764 557.112C364.324 555.672 363.172 553.992 362.308 552.072C361.492 550.152 361.084 548.112 361.084 545.952C361.084 543.792 361.492 541.752 362.308 539.832C363.172 537.912 364.324 536.232 365.764 534.792C367.204 533.352 368.86 532.224 370.732 531.408C372.652 530.544 374.692 530.112 376.852 530.112C380.26 530.112 383.212 531.144 385.708 533.208C388.252 535.224 390.076 537.888 391.18 541.2C389.692 541.728 387.988 542.376 386.068 543.144C384.148 543.912 382.156 544.728 380.092 545.592C378.028 546.408 375.964 547.224 373.9 548.04C371.836 548.856 369.916 549.6 368.14 550.272C368.956 551.904 370.132 553.224 371.668 554.232C373.252 555.192 375.004 555.672 376.924 555.672C378.22 555.672 379.516 555.432 380.812 554.952C382.156 554.472 383.236 553.824 384.052 553.008L388.66 557.472ZM383.476 539.76C382.9 538.56 381.988 537.672 380.74 537.096C379.492 536.472 378.22 536.16 376.924 536.16C375.532 536.16 374.236 536.424 373.036 536.952C371.884 537.48 370.876 538.2 370.012 539.112C369.148 539.976 368.452 540.984 367.924 542.136C367.444 543.288 367.204 544.464 367.204 545.664C367.204 545.904 367.204 546.072 367.204 546.168C367.252 546.264 367.276 546.336 367.276 546.384C368.524 545.904 369.868 545.376 371.308 544.8C372.796 544.176 374.26 543.576 375.7 543C377.14 542.376 378.532 541.8 379.876 541.272C381.22 540.696 382.42 540.192 383.476 539.76ZM394.412 546.24C394.412 544.032 394.82 541.968 395.636 540.048C396.5 538.08 397.652 536.376 399.092 534.936C400.532 533.448 402.188 532.272 404.06 531.408C405.98 530.544 408.02 530.112 410.18 530.112C411.62 530.112 412.94 530.304 414.14 530.688C415.34 531.024 416.372 531.456 417.236 531.984C418.1 532.512 418.796 533.064 419.324 533.64C419.852 534.216 420.212 534.72 420.404 535.152L420.692 530.904H426.596V561H420.404V557.184C420.164 557.568 419.78 558.024 419.252 558.552C418.724 559.08 418.028 559.584 417.164 560.064C416.348 560.496 415.364 560.88 414.212 561.216C413.06 561.552 411.74 561.72 410.252 561.72C407.948 561.72 405.812 561.312 403.844 560.496C401.924 559.632 400.268 558.504 398.876 557.112C397.484 555.672 396.38 554.016 395.564 552.144C394.796 550.272 394.412 548.304 394.412 546.24ZM400.604 545.88C400.604 547.272 400.844 548.568 401.324 549.768C401.852 550.968 402.548 552 403.412 552.864C404.276 553.728 405.308 554.424 406.508 554.952C407.708 555.432 409.028 555.672 410.468 555.672C411.908 555.672 413.228 555.432 414.428 554.952C415.676 554.424 416.732 553.728 417.596 552.864C418.508 551.952 419.204 550.92 419.684 549.768C420.164 548.568 420.404 547.272 420.404 545.88C420.404 544.488 420.164 543.216 419.684 542.064C419.204 540.864 418.508 539.832 417.596 538.968C416.732 538.104 415.676 537.432 414.428 536.952C413.228 536.424 411.908 536.16 410.468 536.16C409.028 536.16 407.708 536.424 406.508 536.952C405.308 537.432 404.276 538.104 403.412 538.968C402.548 539.832 401.852 540.864 401.324 542.064C400.844 543.216 400.604 544.488 400.604 545.88ZM435.242 530.904H440.642C440.738 532.392 440.81 533.76 440.858 535.008C440.954 536.208 441.05 537.408 441.146 538.608C442.25 536.016 443.69 533.976 445.466 532.488C447.29 530.952 449.714 530.16 452.738 530.112C455.666 530.112 458.018 530.856 459.794 532.344C461.57 533.832 462.602 535.776 462.89 538.176C464.09 535.728 465.554 533.784 467.282 532.344C469.058 530.904 471.434 530.16 474.41 530.112C477.53 530.112 479.978 530.952 481.754 532.632C483.578 534.312 484.538 536.472 484.634 539.112V561H478.442V541.92C478.346 540.384 477.818 539.088 476.858 538.032C475.946 536.928 474.434 536.328 472.322 536.232C469.442 536.232 467.186 537.168 465.554 539.04C463.922 540.864 463.058 543.216 462.962 546.096V561H456.842V541.92C456.746 540.384 456.194 539.088 455.186 538.032C454.226 536.928 452.738 536.328 450.722 536.232C449.282 536.232 447.986 536.496 446.834 537.024C445.682 537.504 444.698 538.176 443.882 539.04C443.066 539.904 442.442 540.936 442.01 542.136C441.578 543.336 441.362 544.656 441.362 546.096V561H435.242V530.904ZM518.456 557.472C517.016 558.768 515.264 559.8 513.2 560.568C511.136 561.336 509.024 561.72 506.864 561.72C504.656 561.72 502.568 561.312 500.6 560.496C498.68 559.632 497 558.504 495.56 557.112C494.12 555.672 492.968 553.992 492.104 552.072C491.288 550.152 490.88 548.112 490.88 545.952C490.88 543.792 491.288 541.752 492.104 539.832C492.968 537.912 494.12 536.232 495.56 534.792C497 533.352 498.656 532.224 500.528 531.408C502.448 530.544 504.488 530.112 506.648 530.112C510.056 530.112 513.008 531.144 515.504 533.208C518.048 535.224 519.872 537.888 520.976 541.2C519.488 541.728 517.784 542.376 515.864 543.144C513.944 543.912 511.952 544.728 509.888 545.592C507.824 546.408 505.76 547.224 503.696 548.04C501.632 548.856 499.712 549.6 497.936 550.272C498.752 551.904 499.928 553.224 501.464 554.232C503.048 555.192 504.8 555.672 506.72 555.672C508.016 555.672 509.312 555.432 510.608 554.952C511.952 554.472 513.032 553.824 513.848 553.008L518.456 557.472ZM513.272 539.76C512.696 538.56 511.784 537.672 510.536 537.096C509.288 536.472 508.016 536.16 506.72 536.16C505.328 536.16 504.032 536.424 502.832 536.952C501.68 537.48 500.672 538.2 499.808 539.112C498.944 539.976 498.248 540.984 497.72 542.136C497.24 543.288 497 544.464 497 545.664C497 545.904 497 546.072 497 546.168C497.048 546.264 497.072 546.336 497.072 546.384C498.32 545.904 499.664 545.376 501.104 544.8C502.592 544.176 504.056 543.576 505.496 543C506.936 542.376 508.328 541.8 509.672 541.272C511.016 540.696 512.216 540.192 513.272 539.76ZM542.857 538.032C541.513 538.032 540.217 538.224 538.969 538.608C537.721 538.944 536.593 539.472 535.585 540.192C534.625 540.912 533.857 541.824 533.281 542.928C532.705 543.984 532.417 545.208 532.417 546.6V561H526.297V530.904H531.697C531.793 532.392 531.865 533.76 531.913 535.008C532.009 536.208 532.105 537.408 532.201 538.608C532.825 537.312 533.641 536.136 534.649 535.08C535.657 534.024 536.737 533.136 537.889 532.416C539.041 531.696 540.169 531.144 541.273 530.76C542.377 530.328 543.361 530.112 544.225 530.112L542.857 538.032Z" fill="white"/>
<path d="M169.564 635.34L168.16 638.544C167.176 638.184 166.192 637.896 165.208 637.68C164.248 637.464 163.324 637.356 162.436 637.356C160.924 637.356 159.712 637.668 158.8 638.292C157.912 638.916 157.468 639.708 157.468 640.668C157.468 641.484 157.792 642.144 158.44 642.648C159.088 643.128 159.892 643.572 160.852 643.98C161.812 644.364 162.856 644.76 163.984 645.168C165.112 645.552 166.156 646.056 167.116 646.68C168.076 647.304 168.88 648.096 169.528 649.056C170.176 649.992 170.5 651.204 170.5 652.692C170.5 653.844 170.284 654.888 169.852 655.824C169.444 656.736 168.82 657.528 167.98 658.2C167.164 658.872 166.132 659.388 164.884 659.748C163.66 660.108 162.22 660.288 160.564 660.288C159.508 660.288 158.548 660.216 157.684 660.072C156.844 659.928 156.076 659.748 155.38 659.532C154.708 659.292 154.108 659.04 153.58 658.776C153.076 658.512 152.644 658.272 152.284 658.056L154.012 654.636C154.972 655.188 156.04 655.632 157.216 655.968C158.392 656.304 159.46 656.472 160.42 656.472C160.9 656.472 161.488 656.412 162.184 656.292C162.904 656.172 163.588 655.968 164.236 655.68C164.884 655.368 165.436 654.96 165.892 654.456C166.372 653.952 166.612 653.316 166.612 652.548C166.612 651.852 166.42 651.264 166.036 650.784C165.676 650.28 165.184 649.848 164.56 649.488C163.96 649.104 163.264 648.768 162.472 648.48C161.704 648.168 160.912 647.856 160.096 647.544C159.28 647.208 158.476 646.86 157.684 646.5C156.916 646.14 156.22 645.708 155.596 645.204C154.996 644.676 154.504 644.076 154.12 643.404C153.76 642.708 153.58 641.88 153.58 640.92C153.58 640.032 153.76 639.156 154.12 638.292C154.48 637.428 155.02 636.66 155.74 635.988C156.46 635.316 157.348 634.776 158.404 634.368C159.484 633.96 160.732 633.756 162.148 633.756C163.012 633.756 163.852 633.828 164.668 633.972C165.508 634.116 166.264 634.284 166.936 634.476C167.608 634.644 168.172 634.812 168.628 634.98C169.108 635.148 169.42 635.268 169.564 635.34ZM174.634 638.328H177.694V644.988H181.726V647.724H177.694V660H174.634V647.724H171.934V644.988H174.634V638.328ZM192.551 648.516C191.879 648.516 191.231 648.612 190.607 648.804C189.983 648.972 189.419 649.236 188.915 649.596C188.435 649.956 188.051 650.412 187.763 650.964C187.475 651.492 187.331 652.104 187.331 652.8V660H184.271V644.952H186.971C187.019 645.696 187.055 646.38 187.079 647.004C187.127 647.604 187.175 648.204 187.223 648.804C187.535 648.156 187.943 647.568 188.447 647.04C188.951 646.512 189.491 646.068 190.067 645.708C190.643 645.348 191.207 645.072 191.759 644.88C192.311 644.664 192.803 644.556 193.235 644.556L192.551 648.516ZM207.914 658.236C207.194 658.884 206.318 659.4 205.286 659.784C204.254 660.168 203.198 660.36 202.118 660.36C201.014 660.36 199.97 660.156 198.986 659.748C198.026 659.316 197.186 658.752 196.466 658.056C195.746 657.336 195.17 656.496 194.738 655.536C194.33 654.576 194.126 653.556 194.126 652.476C194.126 651.396 194.33 650.376 194.738 649.416C195.17 648.456 195.746 647.616 196.466 646.896C197.186 646.176 198.014 645.612 198.95 645.204C199.91 644.772 200.93 644.556 202.01 644.556C203.714 644.556 205.19 645.072 206.438 646.104C207.71 647.112 208.622 648.444 209.174 650.1C208.43 650.364 207.578 650.688 206.618 651.072C205.658 651.456 204.662 651.864 203.63 652.296C202.598 652.704 201.566 653.112 200.534 653.52C199.502 653.928 198.542 654.3 197.654 654.636C198.062 655.452 198.65 656.112 199.418 656.616C200.21 657.096 201.086 657.336 202.046 657.336C202.694 657.336 203.342 657.216 203.99 656.976C204.662 656.736 205.202 656.412 205.61 656.004L207.914 658.236ZM205.322 649.38C205.034 648.78 204.578 648.336 203.954 648.048C203.33 647.736 202.694 647.58 202.046 647.58C201.35 647.58 200.702 647.712 200.102 647.976C199.526 648.24 199.022 648.6 198.59 649.056C198.158 649.488 197.81 649.992 197.546 650.568C197.306 651.144 197.186 651.732 197.186 652.332C197.186 652.452 197.186 652.536 197.186 652.584C197.21 652.632 197.222 652.668 197.222 652.692C197.846 652.452 198.518 652.188 199.238 651.9C199.982 651.588 200.714 651.288 201.434 651C202.154 650.688 202.85 650.4 203.522 650.136C204.194 649.848 204.794 649.596 205.322 649.38ZM210.79 652.62C210.79 651.516 210.994 650.484 211.402 649.524C211.834 648.54 212.41 647.688 213.13 646.968C213.85 646.224 214.678 645.636 215.614 645.204C216.574 644.772 217.594 644.556 218.674 644.556C219.394 644.556 220.054 644.652 220.654 644.844C221.254 645.012 221.77 645.228 222.202 645.492C222.634 645.756 222.982 646.032 223.246 646.32C223.51 646.608 223.69 646.86 223.786 647.076L223.93 644.952H226.882V660H223.786V658.092C223.666 658.284 223.474 658.512 223.21 658.776C222.946 659.04 222.598 659.292 222.166 659.532C221.758 659.748 221.266 659.94 220.69 660.108C220.114 660.276 219.454 660.36 218.71 660.36C217.558 660.36 216.49 660.156 215.506 659.748C214.546 659.316 213.718 658.752 213.022 658.056C212.326 657.336 211.774 656.508 211.366 655.572C210.982 654.636 210.79 653.652 210.79 652.62ZM213.886 652.44C213.886 653.136 214.006 653.784 214.246 654.384C214.51 654.984 214.858 655.5 215.29 655.932C215.722 656.364 216.238 656.712 216.838 656.976C217.438 657.216 218.098 657.336 218.818 657.336C219.538 657.336 220.198 657.216 220.798 656.976C221.422 656.712 221.95 656.364 222.382 655.932C222.838 655.476 223.186 654.96 223.426 654.384C223.666 653.784 223.786 653.136 223.786 652.44C223.786 651.744 223.666 651.108 223.426 650.532C223.186 649.932 222.838 649.416 222.382 648.984C221.95 648.552 221.422 648.216 220.798 647.976C220.198 647.712 219.538 647.58 218.818 647.58C218.098 647.58 217.438 647.712 216.838 647.976C216.238 648.216 215.722 648.552 215.29 648.984C214.858 649.416 214.51 649.932 214.246 650.532C214.006 651.108 213.886 651.744 213.886 652.44ZM231.205 644.952H233.905C233.953 645.696 233.989 646.38 234.013 647.004C234.061 647.604 234.109 648.204 234.157 648.804C234.709 647.508 235.429 646.488 236.317 645.744C237.229 644.976 238.441 644.58 239.953 644.556C241.417 644.556 242.593 644.928 243.481 645.672C244.369 646.416 244.885 647.388 245.029 648.588C245.629 647.364 246.361 646.392 247.225 645.672C248.113 644.952 249.301 644.58 250.789 644.556C252.349 644.556 253.573 644.976 254.461 645.816C255.373 646.656 255.853 647.736 255.901 649.056V660H252.805V650.46C252.757 649.692 252.493 649.044 252.013 648.516C251.557 647.964 250.801 647.664 249.745 647.616C248.305 647.616 247.177 648.084 246.361 649.02C245.545 649.932 245.113 651.108 245.065 652.548V660H242.005V650.46C241.957 649.692 241.681 649.044 241.177 648.516C240.697 647.964 239.953 647.664 238.945 647.616C238.225 647.616 237.577 647.748 237.001 648.012C236.425 648.252 235.933 648.588 235.525 649.02C235.117 649.452 234.805 649.968 234.589 650.568C234.373 651.168 234.265 651.828 234.265 652.548V660H231.205V644.952ZM267.321 652.62C267.321 651.516 267.525 650.484 267.933 649.524C268.365 648.54 268.941 647.688 269.661 646.968C270.381 646.224 271.209 645.636 272.145 645.204C273.105 644.772 274.125 644.556 275.205 644.556C275.925 644.556 276.585 644.652 277.185 644.844C277.785 645.012 278.301 645.228 278.733 645.492C279.165 645.756 279.513 646.032 279.777 646.32C280.041 646.608 280.221 646.86 280.317 647.076L280.461 644.952H283.413V660H280.317V658.092C280.197 658.284 280.005 658.512 279.741 658.776C279.477 659.04 279.129 659.292 278.697 659.532C278.289 659.748 277.797 659.94 277.221 660.108C276.645 660.276 275.985 660.36 275.241 660.36C274.089 660.36 273.021 660.156 272.037 659.748C271.077 659.316 270.249 658.752 269.553 658.056C268.857 657.336 268.305 656.508 267.897 655.572C267.513 654.636 267.321 653.652 267.321 652.62ZM270.417 652.44C270.417 653.136 270.537 653.784 270.777 654.384C271.041 654.984 271.389 655.5 271.821 655.932C272.253 656.364 272.769 656.712 273.369 656.976C273.969 657.216 274.629 657.336 275.349 657.336C276.069 657.336 276.729 657.216 277.329 656.976C277.953 656.712 278.481 656.364 278.913 655.932C279.369 655.476 279.717 654.96 279.957 654.384C280.197 653.784 280.317 653.136 280.317 652.44C280.317 651.744 280.197 651.108 279.957 650.532C279.717 649.932 279.369 649.416 278.913 648.984C278.481 648.552 277.953 648.216 277.329 647.976C276.729 647.712 276.069 647.58 275.349 647.58C274.629 647.58 273.969 647.712 273.369 647.976C272.769 648.216 272.253 648.552 271.821 648.984C271.389 649.416 271.041 649.932 270.777 650.532C270.537 651.108 270.417 651.744 270.417 652.44ZM287.736 644.952H290.436C290.484 645.696 290.52 646.38 290.544 647.004C290.592 647.604 290.64 648.204 290.688 648.804C291.24 647.508 292.02 646.476 293.028 645.708C294.06 644.94 295.32 644.556 296.808 644.556C298.32 644.556 299.532 644.976 300.444 645.816C301.356 646.656 301.836 647.736 301.884 649.056V660H298.788V650.46C298.74 649.692 298.476 649.044 297.996 648.516C297.516 647.964 296.76 647.664 295.728 647.616C295.008 647.616 294.348 647.748 293.748 648.012C293.148 648.252 292.632 648.588 292.2 649.02C291.768 649.452 291.42 649.968 291.156 650.568C290.916 651.168 290.796 651.828 290.796 652.548V660H287.736V644.952ZM305.045 652.476C305.045 651.3 305.237 650.232 305.621 649.272C306.029 648.288 306.581 647.448 307.277 646.752C307.973 646.056 308.789 645.516 309.725 645.132C310.685 644.748 311.717 644.556 312.821 644.556C313.565 644.556 314.225 644.652 314.801 644.844C315.401 645.012 315.905 645.228 316.313 645.492C316.745 645.732 317.105 646.008 317.393 646.32C317.681 646.632 317.897 646.908 318.041 647.148V632.028H321.137V660H318.041V658.884C318.041 658.74 318.053 658.584 318.077 658.416C318.101 658.224 318.113 658.068 318.113 657.948C317.873 658.236 317.585 658.524 317.249 658.812C316.937 659.076 316.565 659.328 316.133 659.568C315.701 659.808 315.197 660 314.621 660.144C314.069 660.288 313.433 660.36 312.713 660.36C311.513 660.36 310.433 660.156 309.473 659.748C308.537 659.316 307.733 658.752 307.061 658.056C306.413 657.336 305.909 656.496 305.549 655.536C305.213 654.576 305.045 653.556 305.045 652.476ZM308.141 652.44C308.141 653.136 308.261 653.784 308.501 654.384C308.765 654.984 309.113 655.5 309.545 655.932C309.977 656.364 310.493 656.712 311.093 656.976C311.693 657.216 312.353 657.336 313.073 657.336C313.793 657.336 314.453 657.216 315.053 656.976C315.677 656.712 316.205 656.364 316.637 655.932C317.093 655.476 317.441 654.96 317.681 654.384C317.921 653.784 318.041 653.136 318.041 652.44C318.041 651.744 317.921 651.108 317.681 650.532C317.441 649.932 317.093 649.416 316.637 648.984C316.205 648.552 315.677 648.216 315.053 647.976C314.453 647.712 313.793 647.58 313.073 647.58C312.353 647.58 311.693 647.712 311.093 647.976C310.493 648.216 309.977 648.552 309.545 648.984C309.113 649.416 308.765 649.932 308.501 650.532C308.261 651.108 308.141 651.744 308.141 652.44ZM338.76 637.464V645.168H342.288C343.584 645.168 344.556 644.784 345.204 644.016C345.852 643.248 346.176 642.312 346.176 641.208C346.176 639.912 345.78 638.964 344.988 638.364C344.22 637.764 343.188 637.464 341.892 637.464H338.76ZM338.76 648.516V656.436H342.432C343.128 656.436 343.776 656.352 344.376 656.184C345 656.016 345.54 655.776 345.996 655.464C346.452 655.128 346.812 654.708 347.076 654.204C347.34 653.7 347.472 653.112 347.472 652.44C347.472 651.696 347.316 651.084 347.004 650.604C346.692 650.1 346.272 649.692 345.744 649.38C345.24 649.068 344.652 648.852 343.98 648.732C343.332 648.588 342.66 648.516 341.964 648.516H338.76ZM334.8 660V633.9H341.712C342.984 633.9 344.136 634.032 345.168 634.296C346.2 634.536 347.076 634.932 347.796 635.484C348.516 636.012 349.068 636.708 349.452 637.572C349.86 638.412 350.064 639.444 350.064 640.668C350.064 641.34 349.992 642 349.848 642.648C349.728 643.296 349.512 643.896 349.2 644.448C348.912 644.976 348.516 645.444 348.012 645.852C347.532 646.26 346.932 646.572 346.212 646.788C346.836 646.908 347.448 647.112 348.048 647.4C348.672 647.688 349.224 648.084 349.704 648.588C350.184 649.068 350.568 649.668 350.856 650.388C351.168 651.108 351.324 651.96 351.324 652.944C351.324 654.192 351.084 655.26 350.604 656.148C350.124 657.036 349.488 657.768 348.696 658.344C347.904 658.92 346.992 659.34 345.96 659.604C344.928 659.868 343.86 660 342.756 660H334.8ZM362.883 648.516C362.211 648.516 361.563 648.612 360.939 648.804C360.315 648.972 359.751 649.236 359.247 649.596C358.767 649.956 358.383 650.412 358.095 650.964C357.807 651.492 357.663 652.104 357.663 652.8V660H354.603V644.952H357.303C357.351 645.696 357.387 646.38 357.411 647.004C357.459 647.604 357.507 648.204 357.555 648.804C357.867 648.156 358.275 647.568 358.779 647.04C359.283 646.512 359.823 646.068 360.399 645.708C360.975 645.348 361.539 645.072 362.091 644.88C362.643 644.664 363.135 644.556 363.567 644.556L362.883 648.516ZM364.458 652.44C364.458 651.36 364.662 650.34 365.07 649.38C365.502 648.42 366.078 647.592 366.798 646.896C367.518 646.176 368.358 645.612 369.318 645.204C370.302 644.772 371.358 644.556 372.486 644.556C373.614 644.556 374.658 644.772 375.618 645.204C376.602 645.612 377.442 646.176 378.138 646.896C378.858 647.592 379.41 648.42 379.794 649.38C380.202 650.34 380.406 651.36 380.406 652.44C380.406 653.52 380.202 654.54 379.794 655.5C379.41 656.46 378.858 657.3 378.138 658.02C377.442 658.74 376.602 659.316 375.618 659.748C374.658 660.156 373.602 660.36 372.45 660.36C371.346 660.36 370.302 660.168 369.318 659.784C368.358 659.4 367.518 658.86 366.798 658.164C366.078 657.468 365.502 656.64 365.07 655.68C364.662 654.696 364.458 653.616 364.458 652.44ZM367.518 652.476C367.518 653.148 367.638 653.784 367.878 654.384C368.142 654.96 368.49 655.476 368.922 655.932C369.378 656.364 369.894 656.712 370.47 656.976C371.07 657.216 371.706 657.336 372.378 657.336C373.05 657.336 373.686 657.216 374.286 656.976C374.886 656.712 375.402 656.364 375.834 655.932C376.29 655.476 376.65 654.96 376.914 654.384C377.178 653.784 377.31 653.148 377.31 652.476C377.31 651.804 377.178 651.168 376.914 650.568C376.65 649.968 376.29 649.452 375.834 649.02C375.402 648.564 374.886 648.216 374.286 647.976C373.686 647.712 373.05 647.58 372.378 647.58C371.706 647.58 371.07 647.712 370.47 647.976C369.894 648.216 369.378 648.564 368.922 649.02C368.49 649.452 368.142 649.968 367.878 650.568C367.638 651.168 367.518 651.804 367.518 652.476ZM382.634 652.62C382.634 651.516 382.838 650.484 383.246 649.524C383.678 648.54 384.254 647.688 384.974 646.968C385.694 646.224 386.522 645.636 387.458 645.204C388.418 644.772 389.438 644.556 390.518 644.556C391.238 644.556 391.898 644.652 392.498 644.844C393.098 645.012 393.614 645.228 394.046 645.492C394.478 645.756 394.826 646.032 395.09 646.32C395.354 646.608 395.534 646.86 395.63 647.076L395.774 644.952H398.726V660H395.63V658.092C395.51 658.284 395.318 658.512 395.054 658.776C394.79 659.04 394.442 659.292 394.01 659.532C393.602 659.748 393.11 659.94 392.534 660.108C391.958 660.276 391.298 660.36 390.554 660.36C389.402 660.36 388.334 660.156 387.35 659.748C386.39 659.316 385.562 658.752 384.866 658.056C384.17 657.336 383.618 656.508 383.21 655.572C382.826 654.636 382.634 653.652 382.634 652.62ZM385.73 652.44C385.73 653.136 385.85 653.784 386.09 654.384C386.354 654.984 386.702 655.5 387.134 655.932C387.566 656.364 388.082 656.712 388.682 656.976C389.282 657.216 389.942 657.336 390.662 657.336C391.382 657.336 392.042 657.216 392.642 656.976C393.266 656.712 393.794 656.364 394.226 655.932C394.682 655.476 395.03 654.96 395.27 654.384C395.51 653.784 395.63 653.136 395.63 652.44C395.63 651.744 395.51 651.108 395.27 650.532C395.03 649.932 394.682 649.416 394.226 648.984C393.794 648.552 393.266 648.216 392.642 647.976C392.042 647.712 391.382 647.58 390.662 647.58C389.942 647.58 389.282 647.712 388.682 647.976C388.082 648.216 387.566 648.552 387.134 648.984C386.702 649.416 386.354 649.932 386.09 650.532C385.85 651.108 385.73 651.744 385.73 652.44ZM402.041 652.476C402.041 651.3 402.233 650.232 402.617 649.272C403.025 648.288 403.577 647.448 404.273 646.752C404.969 646.056 405.785 645.516 406.721 645.132C407.681 644.748 408.713 644.556 409.817 644.556C410.561 644.556 411.221 644.652 411.797 644.844C412.397 645.012 412.901 645.228 413.309 645.492C413.741 645.732 414.101 646.008 414.389 646.32C414.677 646.632 414.893 646.908 415.037 647.148V632.028H418.133V660H415.037V658.884C415.037 658.74 415.049 658.584 415.073 658.416C415.097 658.224 415.109 658.068 415.109 657.948C414.869 658.236 414.581 658.524 414.245 658.812C413.933 659.076 413.561 659.328 413.129 659.568C412.697 659.808 412.193 660 411.617 660.144C411.065 660.288 410.429 660.36 409.709 660.36C408.509 660.36 407.429 660.156 406.469 659.748C405.533 659.316 404.729 658.752 404.057 658.056C403.409 657.336 402.905 656.496 402.545 655.536C402.209 654.576 402.041 653.556 402.041 652.476ZM405.137 652.44C405.137 653.136 405.257 653.784 405.497 654.384C405.761 654.984 406.109 655.5 406.541 655.932C406.973 656.364 407.489 656.712 408.089 656.976C408.689 657.216 409.349 657.336 410.069 657.336C410.789 657.336 411.449 657.216 412.049 656.976C412.673 656.712 413.201 656.364 413.633 655.932C414.089 655.476 414.437 654.96 414.677 654.384C414.917 653.784 415.037 653.136 415.037 652.44C415.037 651.744 414.917 651.108 414.677 650.532C414.437 649.932 414.089 649.416 413.633 648.984C413.201 648.552 412.673 648.216 412.049 647.976C411.449 647.712 410.789 647.58 410.069 647.58C409.349 647.58 408.689 647.712 408.089 647.976C407.489 648.216 406.973 648.552 406.541 648.984C406.109 649.416 405.761 649.932 405.497 650.532C405.257 651.108 405.137 651.744 405.137 652.44ZM432.535 656.292C432.871 656.7 433.183 657.096 433.471 657.48C433.783 657.84 434.095 658.224 434.407 658.632C433.735 659.16 432.979 659.58 432.139 659.892C431.299 660.204 430.387 660.36 429.403 660.36C428.299 660.36 427.255 660.156 426.271 659.748C425.311 659.316 424.471 658.74 423.751 658.02C423.031 657.3 422.455 656.46 422.023 655.5C421.615 654.54 421.411 653.52 421.411 652.44C421.411 651.36 421.615 650.34 422.023 649.38C422.455 648.42 423.031 647.592 423.751 646.896C424.471 646.176 425.311 645.612 426.271 645.204C427.255 644.772 428.299 644.556 429.403 644.556C430.411 644.556 431.335 644.712 432.175 645.024C433.039 645.336 433.819 645.756 434.515 646.284L432.535 648.624C432.127 648.288 431.659 648.036 431.131 647.868C430.603 647.676 430.027 647.58 429.403 647.58C428.683 647.58 428.023 647.712 427.423 647.976C426.823 648.216 426.295 648.552 425.839 648.984C425.407 649.416 425.071 649.932 424.831 650.532C424.591 651.108 424.471 651.744 424.471 652.44C424.471 653.136 424.591 653.784 424.831 654.384C425.071 654.96 425.407 655.476 425.839 655.932C426.295 656.364 426.823 656.712 427.423 656.976C428.023 657.216 428.683 657.336 429.403 657.336C430.027 657.336 430.603 657.252 431.131 657.084C431.659 656.892 432.127 656.628 432.535 656.292ZM435.86 652.62C435.86 651.516 436.064 650.484 436.472 649.524C436.904 648.54 437.48 647.688 438.2 646.968C438.92 646.224 439.748 645.636 440.684 645.204C441.644 644.772 442.664 644.556 443.744 644.556C444.464 644.556 445.124 644.652 445.724 644.844C446.324 645.012 446.84 645.228 447.272 645.492C447.704 645.756 448.052 646.032 448.316 646.32C448.58 646.608 448.76 646.86 448.856 647.076L449 644.952H451.952V660H448.856V658.092C448.736 658.284 448.544 658.512 448.28 658.776C448.016 659.04 447.668 659.292 447.236 659.532C446.828 659.748 446.336 659.94 445.76 660.108C445.184 660.276 444.524 660.36 443.78 660.36C442.628 660.36 441.56 660.156 440.576 659.748C439.616 659.316 438.788 658.752 438.092 658.056C437.396 657.336 436.844 656.508 436.436 655.572C436.052 654.636 435.86 653.652 435.86 652.62ZM438.956 652.44C438.956 653.136 439.076 653.784 439.316 654.384C439.58 654.984 439.928 655.5 440.36 655.932C440.792 656.364 441.308 656.712 441.908 656.976C442.508 657.216 443.168 657.336 443.888 657.336C444.608 657.336 445.268 657.216 445.868 656.976C446.492 656.712 447.02 656.364 447.452 655.932C447.908 655.476 448.256 654.96 448.496 654.384C448.736 653.784 448.856 653.136 448.856 652.44C448.856 651.744 448.736 651.108 448.496 650.532C448.256 649.932 447.908 649.416 447.452 648.984C447.02 648.552 446.492 648.216 445.868 647.976C445.268 647.712 444.608 647.58 443.888 647.58C443.168 647.58 442.508 647.712 441.908 647.976C441.308 648.216 440.792 648.552 440.36 648.984C439.928 649.416 439.58 649.932 439.316 650.532C439.076 651.108 438.956 651.744 438.956 652.44ZM464.663 646.284L463.043 648.444C463.019 648.42 462.935 648.36 462.791 648.264C462.647 648.168 462.455 648.072 462.215 647.976C461.999 647.88 461.735 647.796 461.423 647.724C461.135 647.628 460.835 647.58 460.523 647.58C460.115 647.58 459.707 647.676 459.299 647.868C458.915 648.06 458.723 648.42 458.723 648.948C458.723 649.404 458.879 649.776 459.191 650.064C459.527 650.352 459.935 650.616 460.415 650.856C460.895 651.072 461.411 651.3 461.963 651.54C462.539 651.78 463.067 652.08 463.547 652.44C464.027 652.776 464.423 653.208 464.735 653.736C465.071 654.24 465.239 654.888 465.239 655.68C465.239 657.024 464.771 658.14 463.835 659.028C462.923 659.892 461.663 660.324 460.055 660.324C459.119 660.324 458.195 660.168 457.283 659.856C456.395 659.52 455.675 659.04 455.123 658.416C455.291 658.248 455.471 658.032 455.663 657.768C455.879 657.504 456.083 657.252 456.275 657.012C456.491 656.772 456.659 656.58 456.779 656.436C456.923 656.268 457.007 656.184 457.031 656.184C457.031 656.208 457.115 656.28 457.283 656.4C457.475 656.52 457.715 656.652 458.003 656.796C458.291 656.916 458.615 657.036 458.975 657.156C459.335 657.252 459.695 657.3 460.055 657.3C460.631 657.3 461.123 657.156 461.531 656.868C461.939 656.58 462.143 656.196 462.143 655.716C462.143 655.284 461.975 654.948 461.639 654.708C461.327 654.444 460.931 654.204 460.451 653.988C459.971 653.772 459.443 653.556 458.867 653.34C458.291 653.1 457.763 652.8 457.283 652.44C456.803 652.08 456.395 651.636 456.059 651.108C455.747 650.556 455.591 649.848 455.591 648.984C455.591 648.168 455.735 647.484 456.023 646.932C456.335 646.38 456.719 645.936 457.175 645.6C457.655 645.24 458.183 644.988 458.759 644.844C459.335 644.676 459.887 644.592 460.415 644.592C461.111 644.592 461.855 644.736 462.647 645.024C463.439 645.312 464.111 645.732 464.663 646.284ZM469.806 638.328H472.866V644.988H476.898V647.724H472.866V660H469.806V647.724H467.106V644.988H469.806V638.328ZM176.403 714V687.9H180.327V698.988H193.395V687.9H197.355C197.355 688.212 197.355 688.8 197.355 689.664C197.355 690.504 197.355 691.512 197.355 692.688C197.355 693.864 197.355 695.172 197.355 696.612C197.355 698.028 197.343 699.48 197.319 700.968C197.319 702.432 197.319 703.884 197.319 705.324C197.319 706.74 197.319 708.036 197.319 709.212C197.319 710.388 197.319 711.408 197.319 712.272C197.319 713.112 197.319 713.688 197.319 714H193.395V702.732H180.327V714H176.403ZM201.998 693.192C201.998 692.616 202.202 692.136 202.61 691.752C203.042 691.368 203.498 691.176 203.978 691.176C204.458 691.176 204.902 691.368 205.31 691.752C205.718 692.136 205.922 692.616 205.922 693.192C205.922 693.768 205.718 694.248 205.31 694.632C204.902 694.992 204.458 695.172 203.978 695.172C203.498 695.172 203.042 694.992 202.61 694.632C202.202 694.248 201.998 693.768 201.998 693.192ZM205.454 714H202.394V698.952H205.454V714ZM208.769 706.512C208.769 705.384 208.973 704.34 209.381 703.38C209.789 702.396 210.341 701.556 211.037 700.86C211.733 700.14 212.549 699.576 213.485 699.168C214.421 698.76 215.417 698.556 216.473 698.556C217.289 698.556 218.009 698.664 218.633 698.88C219.281 699.096 219.821 699.348 220.253 699.636C220.685 699.924 221.021 700.212 221.261 700.5C221.525 700.764 221.693 700.956 221.765 701.076C221.765 700.74 221.789 700.392 221.837 700.032C221.885 699.648 221.909 699.288 221.909 698.952H224.861V713.316C224.861 715.812 224.129 717.756 222.665 719.148C221.201 720.54 219.221 721.236 216.725 721.236C215.861 721.236 215.081 721.14 214.385 720.948C213.713 720.78 213.089 720.552 212.513 720.264C211.961 719.976 211.445 719.64 210.965 719.256C210.509 718.872 210.053 718.476 209.597 718.068L211.577 715.98C212.321 716.676 213.077 717.228 213.845 717.636C214.637 718.044 215.573 718.248 216.653 718.248C218.261 718.248 219.509 717.864 220.397 717.096C221.285 716.328 221.741 715.26 221.765 713.892V712.848C221.765 712.656 221.789 712.452 221.837 712.236C221.885 711.996 221.909 711.816 221.909 711.696C221.693 711.984 221.417 712.296 221.081 712.632C220.769 712.944 220.397 713.232 219.965 713.496C219.533 713.736 219.029 713.94 218.453 714.108C217.877 714.276 217.229 714.36 216.509 714.36C215.381 714.36 214.349 714.156 213.413 713.748C212.477 713.34 211.661 712.788 210.965 712.092C210.269 711.372 209.729 710.544 209.345 709.608C208.961 708.648 208.769 707.616 208.769 706.512ZM211.865 706.44C211.865 707.136 211.985 707.784 212.225 708.384C212.489 708.984 212.837 709.5 213.269 709.932C213.701 710.364 214.217 710.712 214.817 710.976C215.417 711.216 216.077 711.336 216.797 711.336C217.517 711.336 218.177 711.216 218.777 710.976C219.401 710.712 219.929 710.364 220.361 709.932C220.817 709.476 221.165 708.96 221.405 708.384C221.645 707.784 221.765 707.136 221.765 706.44C221.765 705.744 221.645 705.108 221.405 704.532C221.165 703.932 220.817 703.416 220.361 702.984C219.929 702.552 219.401 702.216 218.777 701.976C218.177 701.712 217.517 701.58 216.797 701.58C216.077 701.58 215.417 701.712 214.817 701.976C214.217 702.216 213.701 702.552 213.269 702.984C212.837 703.416 212.489 703.932 212.225 704.532C211.985 705.108 211.865 705.744 211.865 706.44ZM229.183 686.028H232.243V702.588C232.771 701.388 233.515 700.428 234.475 699.708C235.435 698.964 236.671 698.58 238.183 698.556C239.719 698.532 240.943 698.94 241.855 699.78C242.791 700.62 243.283 701.712 243.331 703.056V714H240.235V704.46C240.187 703.692 239.923 703.044 239.443 702.516C238.963 701.964 238.207 701.664 237.175 701.616C236.455 701.616 235.795 701.748 235.195 702.012C234.595 702.252 234.079 702.588 233.647 703.02C233.215 703.452 232.867 703.968 232.603 704.568C232.363 705.168 232.243 705.828 232.243 706.548V714H229.183V686.028ZM255.005 700.968C255.005 699.168 255.353 697.464 256.049 695.856C256.745 694.224 257.693 692.796 258.893 691.572C260.093 690.348 261.497 689.388 263.105 688.692C264.713 687.972 266.441 687.612 268.289 687.612C270.113 687.612 271.829 687.972 273.437 688.692C275.069 689.388 276.497 690.348 277.721 691.572C278.945 692.796 279.905 694.224 280.601 695.856C281.321 697.464 281.681 699.168 281.681 700.968C281.681 702.816 281.357 704.544 280.709 706.152C280.061 707.76 279.161 709.236 278.009 710.58L282.509 710.256V714H271.097C270.617 714.096 270.149 714.168 269.693 714.216C269.237 714.264 268.769 714.288 268.289 714.288C266.441 714.288 264.713 713.94 263.105 713.244C261.497 712.548 260.093 711.6 258.893 710.4C257.693 709.176 256.745 707.76 256.049 706.152C255.353 704.544 255.005 702.816 255.005 700.968ZM258.929 701.004C258.929 702.324 259.169 703.572 259.649 704.748C260.153 705.9 260.825 706.908 261.665 707.772C262.529 708.636 263.537 709.32 264.689 709.824C265.841 710.328 267.077 710.58 268.397 710.58C269.693 710.58 270.905 710.328 272.033 709.824C273.185 709.32 274.181 708.636 275.021 707.772C275.885 706.908 276.557 705.9 277.037 704.748C277.541 703.572 277.793 702.312 277.793 700.968C277.793 699.648 277.541 698.412 277.037 697.26C276.533 696.084 275.849 695.064 274.985 694.2C274.145 693.336 273.149 692.652 271.997 692.148C270.845 691.644 269.621 691.392 268.325 691.392C267.029 691.392 265.805 691.644 264.653 692.148C263.501 692.652 262.505 693.336 261.665 694.2C260.825 695.064 260.153 696.084 259.649 697.26C259.169 698.436 258.929 699.684 258.929 701.004ZM298.98 714.324H296.388L296.028 710.148C295.476 711.372 294.696 712.38 293.688 713.172C292.704 713.964 291.444 714.36 289.908 714.36C288.372 714.36 287.148 713.952 286.236 713.136C285.348 712.296 284.88 711.204 284.832 709.86V698.952H287.892V708.492C287.94 709.236 288.204 709.872 288.684 710.4C289.188 710.928 289.956 711.228 290.988 711.3C291.708 711.3 292.368 711.18 292.968 710.94C293.568 710.676 294.084 710.328 294.516 709.896C294.948 709.464 295.284 708.948 295.524 708.348C295.764 707.748 295.884 707.088 295.884 706.368V698.952H298.98V714.324ZM302.249 706.62C302.249 705.516 302.453 704.484 302.861 703.524C303.293 702.54 303.869 701.688 304.589 700.968C305.309 700.224 306.137 699.636 307.073 699.204C308.033 698.772 309.053 698.556 310.133 698.556C310.853 698.556 311.513 698.652 312.113 698.844C312.713 699.012 313.229 699.228 313.661 699.492C314.093 699.756 314.441 700.032 314.705 700.32C314.969 700.608 315.149 700.86 315.245 701.076L315.389 698.952H318.341V714H315.245V712.092C315.125 712.284 314.933 712.512 314.669 712.776C314.405 713.04 314.057 713.292 313.625 713.532C313.217 713.748 312.725 713.94 312.149 714.108C311.573 714.276 310.913 714.36 310.169 714.36C309.017 714.36 307.949 714.156 306.965 713.748C306.005 713.316 305.177 712.752 304.481 712.056C303.785 711.336 303.233 710.508 302.825 709.572C302.441 708.636 302.249 707.652 302.249 706.62ZM305.345 706.44C305.345 707.136 305.465 707.784 305.705 708.384C305.969 708.984 306.317 709.5 306.749 709.932C307.181 710.364 307.697 710.712 308.297 710.976C308.897 711.216 309.557 711.336 310.277 711.336C310.997 711.336 311.657 711.216 312.257 710.976C312.881 710.712 313.409 710.364 313.841 709.932C314.297 709.476 314.645 708.96 314.885 708.384C315.125 707.784 315.245 707.136 315.245 706.44C315.245 705.744 315.125 705.108 314.885 704.532C314.645 703.932 314.297 703.416 313.841 702.984C313.409 702.552 312.881 702.216 312.257 701.976C311.657 701.712 310.997 701.58 310.277 701.58C309.557 701.58 308.897 701.712 308.297 701.976C307.697 702.216 307.181 702.552 306.749 702.984C306.317 703.416 305.969 703.932 305.705 704.532C305.465 705.108 305.345 705.744 305.345 706.44ZM325.76 714H322.7V686.028H325.76V714ZM329.721 693.192C329.721 692.616 329.925 692.136 330.333 691.752C330.765 691.368 331.221 691.176 331.701 691.176C332.181 691.176 332.625 691.368 333.033 691.752C333.441 692.136 333.645 692.616 333.645 693.192C333.645 693.768 333.441 694.248 333.033 694.632C332.625 694.992 332.181 695.172 331.701 695.172C331.221 695.172 330.765 694.992 330.333 694.632C329.925 694.248 329.721 693.768 329.721 693.192ZM333.177 714H330.117V698.952H333.177V714ZM338.796 692.328H341.856V698.988H345.888V701.724H341.856V714H338.796V701.724H336.096V698.988H338.796V692.328ZM352.573 721.236H349.477C349.813 720.54 350.125 719.868 350.413 719.22C350.725 718.596 351.025 717.948 351.313 717.276C351.625 716.628 351.937 715.944 352.249 715.224C352.561 714.528 352.909 713.772 353.293 712.956C352.741 711.876 352.177 710.748 351.601 709.572C351.025 708.372 350.449 707.172 349.873 705.972C349.297 704.772 348.721 703.572 348.145 702.372C347.593 701.172 347.041 700.032 346.489 698.952H349.837C350.701 700.656 351.409 702.096 351.961 703.272C352.537 704.448 353.005 705.468 353.365 706.332C353.749 707.172 354.049 707.892 354.265 708.492C354.505 709.092 354.709 709.644 354.877 710.148C355.069 709.644 355.273 709.092 355.489 708.492C355.729 707.892 356.029 707.172 356.389 706.332C356.773 705.468 357.241 704.448 357.793 703.272C358.369 702.096 359.089 700.656 359.953 698.952H363.301L352.573 721.236ZM375.757 687.9C375.925 688.308 376.201 688.98 376.585 689.916C376.969 690.828 377.401 691.872 377.881 693.048C378.385 694.224 378.901 695.472 379.429 696.792C379.981 698.112 380.497 699.36 380.977 700.536C381.457 701.712 381.889 702.768 382.273 703.704C382.657 704.616 382.933 705.276 383.101 705.684C383.125 705.732 383.185 705.9 383.281 706.188C383.377 706.476 383.449 706.728 383.497 706.944L383.857 705.684C384.025 705.276 384.301 704.616 384.685 703.704C385.069 702.768 385.501 701.712 385.981 700.536C386.461 699.36 386.965 698.112 387.493 696.792C388.045 695.472 388.561 694.224 389.041 693.048C389.545 691.872 389.989 690.828 390.373 689.916C390.757 688.98 391.033 688.308 391.201 687.9H395.089C394.945 688.236 394.681 688.848 394.297 689.736C393.937 690.6 393.493 691.656 392.965 692.904C392.437 694.152 391.849 695.52 391.201 697.008C390.577 698.496 389.929 700.008 389.257 701.544C388.609 703.08 387.961 704.592 387.313 706.08C386.689 707.568 386.113 708.936 385.585 710.184C385.081 711.432 384.637 712.5 384.253 713.388C383.893 714.252 383.641 714.852 383.497 715.188L371.869 687.9H375.757ZM395.639 693.192C395.639 692.616 395.843 692.136 396.251 691.752C396.683 691.368 397.139 691.176 397.619 691.176C398.099 691.176 398.543 691.368 398.951 691.752C399.359 692.136 399.563 692.616 399.563 693.192C399.563 693.768 399.359 694.248 398.951 694.632C398.543 694.992 398.099 695.172 397.619 695.172C397.139 695.172 396.683 694.992 396.251 694.632C395.843 694.248 395.639 693.768 395.639 693.192ZM399.095 714H396.035V698.952H399.095V714ZM402.41 706.476C402.41 705.3 402.602 704.232 402.986 703.272C403.394 702.288 403.946 701.448 404.642 700.752C405.338 700.056 406.154 699.516 407.09 699.132C408.05 698.748 409.082 698.556 410.186 698.556C410.93 698.556 411.59 698.652 412.166 698.844C412.766 699.012 413.27 699.228 413.678 699.492C414.11 699.732 414.47 700.008 414.758 700.32C415.046 700.632 415.262 700.908 415.406 701.148V686.028H418.502V714H415.406V712.884C415.406 712.74 415.418 712.584 415.442 712.416C415.466 712.224 415.478 712.068 415.478 711.948C415.238 712.236 414.95 712.524 414.614 712.812C414.302 713.076 413.93 713.328 413.498 713.568C413.066 713.808 412.562 714 411.986 714.144C411.434 714.288 410.798 714.36 410.078 714.36C408.878 714.36 407.798 714.156 406.838 713.748C405.902 713.316 405.098 712.752 404.426 712.056C403.778 711.336 403.274 710.496 402.914 709.536C402.578 708.576 402.41 707.556 402.41 706.476ZM405.506 706.44C405.506 707.136 405.626 707.784 405.866 708.384C406.13 708.984 406.478 709.5 406.91 709.932C407.342 710.364 407.858 710.712 408.458 710.976C409.058 711.216 409.718 711.336 410.438 711.336C411.158 711.336 411.818 711.216 412.418 710.976C413.042 710.712 413.57 710.364 414.002 709.932C414.458 709.476 414.806 708.96 415.046 708.384C415.286 707.784 415.406 707.136 415.406 706.44C415.406 705.744 415.286 705.108 415.046 704.532C414.806 703.932 414.458 703.416 414.002 702.984C413.57 702.552 413.042 702.216 412.418 701.976C411.818 701.712 411.158 701.58 410.438 701.58C409.718 701.58 409.058 701.712 408.458 701.976C407.858 702.216 407.342 702.552 406.91 702.984C406.478 703.416 406.13 703.932 405.866 704.532C405.626 705.108 405.506 705.744 405.506 706.44ZM435.568 712.236C434.848 712.884 433.972 713.4 432.94 713.784C431.908 714.168 430.852 714.36 429.772 714.36C428.668 714.36 427.624 714.156 426.64 713.748C425.68 713.316 424.84 712.752 424.12 712.056C423.4 711.336 422.824 710.496 422.392 709.536C421.984 708.576 421.78 707.556 421.78 706.476C421.78 705.396 421.984 704.376 422.392 703.416C422.824 702.456 423.4 701.616 424.12 700.896C424.84 700.176 425.668 699.612 426.604 699.204C427.564 698.772 428.584 698.556 429.664 698.556C431.368 698.556 432.844 699.072 434.092 700.104C435.364 701.112 436.276 702.444 436.828 704.1C436.084 704.364 435.232 704.688 434.272 705.072C433.312 705.456 432.316 705.864 431.284 706.296C430.252 706.704 429.22 707.112 428.188 707.52C427.156 707.928 426.196 708.3 425.308 708.636C425.716 709.452 426.304 710.112 427.072 710.616C427.864 711.096 428.74 711.336 429.7 711.336C430.348 711.336 430.996 711.216 431.644 710.976C432.316 710.736 432.856 710.412 433.264 710.004L435.568 712.236ZM432.976 703.38C432.688 702.78 432.232 702.336 431.608 702.048C430.984 701.736 430.348 701.58 429.7 701.58C429.004 701.58 428.356 701.712 427.756 701.976C427.18 702.24 426.676 702.6 426.244 703.056C425.812 703.488 425.464 703.992 425.2 704.568C424.96 705.144 424.84 705.732 424.84 706.332C424.84 706.452 424.84 706.536 424.84 706.584C424.864 706.632 424.876 706.668 424.876 706.692C425.5 706.452 426.172 706.188 426.892 705.9C427.636 705.588 428.368 705.288 429.088 705C429.808 704.688 430.504 704.4 431.176 704.136C431.848 703.848 432.448 703.596 432.976 703.38ZM438.444 706.44C438.444 705.36 438.648 704.34 439.056 703.38C439.488 702.42 440.064 701.592 440.784 700.896C441.504 700.176 442.344 699.612 443.304 699.204C444.288 698.772 445.344 698.556 446.472 698.556C447.6 698.556 448.644 698.772 449.604 699.204C450.588 699.612 451.428 700.176 452.124 700.896C452.844 701.592 453.396 702.42 453.78 703.38C454.188 704.34 454.392 705.36 454.392 706.44C454.392 707.52 454.188 708.54 453.78 709.5C453.396 710.46 452.844 711.3 452.124 712.02C451.428 712.74 450.588 713.316 449.604 713.748C448.644 714.156 447.588 714.36 446.436 714.36C445.332 714.36 444.288 714.168 443.304 713.784C442.344 713.4 441.504 712.86 440.784 712.164C440.064 711.468 439.488 710.64 439.056 709.68C438.648 708.696 438.444 707.616 438.444 706.44ZM441.504 706.476C441.504 707.148 441.624 707.784 441.864 708.384C442.128 708.96 442.476 709.476 442.908 709.932C443.364 710.364 443.88 710.712 444.456 710.976C445.056 711.216 445.692 711.336 446.364 711.336C447.036 711.336 447.672 711.216 448.272 710.976C448.872 710.712 449.388 710.364 449.82 709.932C450.276 709.476 450.636 708.96 450.9 708.384C451.164 707.784 451.296 707.148 451.296 706.476C451.296 705.804 451.164 705.168 450.9 704.568C450.636 703.968 450.276 703.452 449.82 703.02C449.388 702.564 448.872 702.216 448.272 701.976C447.672 701.712 447.036 701.58 446.364 701.58C445.692 701.58 445.056 701.712 444.456 701.976C443.88 702.216 443.364 702.564 442.908 703.02C442.476 703.452 442.128 703.968 441.864 704.568C441.624 705.168 441.504 705.804 441.504 706.476ZM163.522 760.62C163.522 759.516 163.726 758.484 164.134 757.524C164.566 756.54 165.142 755.688 165.862 754.968C166.582 754.224 167.41 753.636 168.346 753.204C169.306 752.772 170.326 752.556 171.406 752.556C172.126 752.556 172.786 752.652 173.386 752.844C173.986 753.012 174.502 753.228 174.934 753.492C175.366 753.756 175.714 754.032 175.978 754.32C176.242 754.608 176.422 754.86 176.518 755.076L176.662 752.952H179.614V768H176.518V766.092C176.398 766.284 176.206 766.512 175.942 766.776C175.678 767.04 175.33 767.292 174.898 767.532C174.49 767.748 173.998 767.94 173.422 768.108C172.846 768.276 172.186 768.36 171.442 768.36C170.29 768.36 169.222 768.156 168.238 767.748C167.278 767.316 166.45 766.752 165.754 766.056C165.058 765.336 164.506 764.508 164.098 763.572C163.714 762.636 163.522 761.652 163.522 760.62ZM166.618 760.44C166.618 761.136 166.738 761.784 166.978 762.384C167.242 762.984 167.59 763.5 168.022 763.932C168.454 764.364 168.97 764.712 169.57 764.976C170.17 765.216 170.83 765.336 171.55 765.336C172.27 765.336 172.93 765.216 173.53 764.976C174.154 764.712 174.682 764.364 175.114 763.932C175.57 763.476 175.918 762.96 176.158 762.384C176.398 761.784 176.518 761.136 176.518 760.44C176.518 759.744 176.398 759.108 176.158 758.532C175.918 757.932 175.57 757.416 175.114 756.984C174.682 756.552 174.154 756.216 173.53 755.976C172.93 755.712 172.27 755.58 171.55 755.58C170.83 755.58 170.17 755.712 169.57 755.976C168.97 756.216 168.454 756.552 168.022 756.984C167.59 757.416 167.242 757.932 166.978 758.532C166.738 759.108 166.618 759.744 166.618 760.44ZM183.937 752.952H186.637C186.685 753.696 186.721 754.38 186.745 755.004C186.793 755.604 186.841 756.204 186.889 756.804C187.441 755.508 188.221 754.476 189.229 753.708C190.261 752.94 191.521 752.556 193.009 752.556C194.521 752.556 195.733 752.976 196.645 753.816C197.557 754.656 198.037 755.736 198.085 757.056V768H194.989V758.46C194.941 757.692 194.677 757.044 194.197 756.516C193.717 755.964 192.961 755.664 191.929 755.616C191.209 755.616 190.549 755.748 189.949 756.012C189.349 756.252 188.833 756.588 188.401 757.02C187.969 757.452 187.621 757.968 187.357 758.568C187.117 759.168 186.997 759.828 186.997 760.548V768H183.937V752.952ZM206.148 775.236H203.052C203.388 774.54 203.7 773.868 203.988 773.22C204.3 772.596 204.6 771.948 204.888 771.276C205.2 770.628 205.512 769.944 205.824 769.224C206.136 768.528 206.484 767.772 206.868 766.956C206.316 765.876 205.752 764.748 205.176 763.572C204.6 762.372 204.024 761.172 203.448 759.972C202.872 758.772 202.296 757.572 201.72 756.372C201.168 755.172 200.616 754.032 200.064 752.952H203.412C204.276 754.656 204.984 756.096 205.536 757.272C206.112 758.448 206.58 759.468 206.94 760.332C207.324 761.172 207.624 761.892 207.84 762.492C208.08 763.092 208.284 763.644 208.452 764.148C208.644 763.644 208.848 763.092 209.064 762.492C209.304 761.892 209.604 761.172 209.964 760.332C210.348 759.468 210.816 758.448 211.368 757.272C211.944 756.096 212.664 754.656 213.528 752.952H216.876L206.148 775.236ZM227.442 755.364L226.326 752.952H228.99C229.686 754.464 230.274 755.772 230.754 756.876C231.234 757.956 231.642 758.904 231.978 759.72C232.314 760.512 232.59 761.184 232.806 761.736C233.022 762.288 233.202 762.756 233.346 763.14C233.49 762.42 233.658 761.772 233.85 761.196C234.066 760.596 234.33 759.936 234.642 759.216C234.954 758.472 235.326 757.62 235.758 756.66C236.214 755.676 236.754 754.44 237.378 752.952H240.474L233.346 768.9C232.914 768.012 232.506 767.136 232.122 766.272C231.762 765.384 231.402 764.508 231.042 763.644C230.706 762.78 230.346 761.916 229.962 761.052C229.602 760.188 229.206 759.3 228.774 758.388L224.202 768.9L217.398 752.952H220.494C221.118 754.44 221.634 755.676 222.042 756.66C222.45 757.644 222.786 758.496 223.05 759.216C223.338 759.936 223.566 760.596 223.734 761.196C223.902 761.772 224.058 762.42 224.202 763.14C224.298 762.852 224.406 762.528 224.526 762.168C224.67 761.808 224.85 761.352 225.066 760.8C225.306 760.224 225.618 759.504 226.002 758.64C226.386 757.776 226.866 756.684 227.442 755.364ZM242.789 740.028H245.849V756.588C246.377 755.388 247.121 754.428 248.081 753.708C249.041 752.964 250.277 752.58 251.789 752.556C253.325 752.532 254.549 752.94 255.461 753.78C256.397 754.62 256.889 755.712 256.937 757.056V768H253.841V758.46C253.793 757.692 253.529 757.044 253.049 756.516C252.569 755.964 251.813 755.664 250.781 755.616C250.061 755.616 249.401 755.748 248.801 756.012C248.201 756.252 247.685 756.588 247.253 757.02C246.821 757.452 246.473 757.968 246.209 758.568C245.969 759.168 245.849 759.828 245.849 760.548V768H242.789V740.028ZM273.849 766.236C273.129 766.884 272.253 767.4 271.221 767.784C270.189 768.168 269.133 768.36 268.053 768.36C266.949 768.36 265.905 768.156 264.921 767.748C263.961 767.316 263.121 766.752 262.401 766.056C261.681 765.336 261.105 764.496 260.673 763.536C260.265 762.576 260.061 761.556 260.061 760.476C260.061 759.396 260.265 758.376 260.673 757.416C261.105 756.456 261.681 755.616 262.401 754.896C263.121 754.176 263.949 753.612 264.885 753.204C265.845 752.772 266.865 752.556 267.945 752.556C269.649 752.556 271.125 753.072 272.373 754.104C273.645 755.112 274.557 756.444 275.109 758.1C274.365 758.364 273.513 758.688 272.553 759.072C271.593 759.456 270.597 759.864 269.565 760.296C268.533 760.704 267.501 761.112 266.469 761.52C265.437 761.928 264.477 762.3 263.589 762.636C263.997 763.452 264.585 764.112 265.353 764.616C266.145 765.096 267.021 765.336 267.981 765.336C268.629 765.336 269.277 765.216 269.925 764.976C270.597 764.736 271.137 764.412 271.545 764.004L273.849 766.236ZM271.257 757.38C270.969 756.78 270.513 756.336 269.889 756.048C269.265 755.736 268.629 755.58 267.981 755.58C267.285 755.58 266.637 755.712 266.037 755.976C265.461 756.24 264.957 756.6 264.525 757.056C264.093 757.488 263.745 757.992 263.481 758.568C263.241 759.144 263.121 759.732 263.121 760.332C263.121 760.452 263.121 760.536 263.121 760.584C263.145 760.632 263.157 760.668 263.157 760.692C263.781 760.452 264.453 760.188 265.173 759.9C265.917 759.588 266.649 759.288 267.369 759C268.089 758.688 268.785 758.4 269.457 758.136C270.129 757.848 270.729 757.596 271.257 757.38ZM286.049 756.516C285.377 756.516 284.729 756.612 284.105 756.804C283.481 756.972 282.917 757.236 282.413 757.596C281.933 757.956 281.549 758.412 281.261 758.964C280.973 759.492 280.829 760.104 280.829 760.8V768H277.769V752.952H280.469C280.517 753.696 280.553 754.38 280.577 755.004C280.625 755.604 280.673 756.204 280.721 756.804C281.033 756.156 281.441 755.568 281.945 755.04C282.449 754.512 282.989 754.068 283.565 753.708C284.141 753.348 284.705 753.072 285.257 752.88C285.809 752.664 286.301 752.556 286.733 752.556L286.049 756.516ZM301.412 766.236C300.692 766.884 299.816 767.4 298.784 767.784C297.752 768.168 296.696 768.36 295.616 768.36C294.512 768.36 293.468 768.156 292.484 767.748C291.524 767.316 290.684 766.752 289.964 766.056C289.244 765.336 288.668 764.496 288.236 763.536C287.828 762.576 287.624 761.556 287.624 760.476C287.624 759.396 287.828 758.376 288.236 757.416C288.668 756.456 289.244 755.616 289.964 754.896C290.684 754.176 291.512 753.612 292.448 753.204C293.408 752.772 294.428 752.556 295.508 752.556C297.212 752.556 298.688 753.072 299.936 754.104C301.208 755.112 302.12 756.444 302.672 758.1C301.928 758.364 301.076 758.688 300.116 759.072C299.156 759.456 298.16 759.864 297.128 760.296C296.096 760.704 295.064 761.112 294.032 761.52C293 761.928 292.04 762.3 291.152 762.636C291.56 763.452 292.148 764.112 292.916 764.616C293.708 765.096 294.584 765.336 295.544 765.336C296.192 765.336 296.84 765.216 297.488 764.976C298.16 764.736 298.7 764.412 299.108 764.004L301.412 766.236ZM298.82 757.38C298.532 756.78 298.076 756.336 297.452 756.048C296.828 755.736 296.192 755.58 295.544 755.58C294.848 755.58 294.2 755.712 293.6 755.976C293.024 756.24 292.52 756.6 292.088 757.056C291.656 757.488 291.308 757.992 291.044 758.568C290.804 759.144 290.684 759.732 290.684 760.332C290.684 760.452 290.684 760.536 290.684 760.584C290.708 760.632 290.72 760.668 290.72 760.692C291.344 760.452 292.016 760.188 292.736 759.9C293.48 759.588 294.212 759.288 294.932 759C295.652 758.688 296.348 758.4 297.02 758.136C297.692 757.848 298.292 757.596 298.82 757.38ZM326.373 766.236C325.653 766.884 324.777 767.4 323.745 767.784C322.713 768.168 321.657 768.36 320.577 768.36C319.473 768.36 318.429 768.156 317.445 767.748C316.485 767.316 315.645 766.752 314.925 766.056C314.205 765.336 313.629 764.496 313.197 763.536C312.789 762.576 312.585 761.556 312.585 760.476C312.585 759.396 312.789 758.376 313.197 757.416C313.629 756.456 314.205 755.616 314.925 754.896C315.645 754.176 316.473 753.612 317.409 753.204C318.369 752.772 319.389 752.556 320.469 752.556C322.173 752.556 323.649 753.072 324.897 754.104C326.169 755.112 327.081 756.444 327.633 758.1C326.889 758.364 326.037 758.688 325.077 759.072C324.117 759.456 323.121 759.864 322.089 760.296C321.057 760.704 320.025 761.112 318.993 761.52C317.961 761.928 317.001 762.3 316.113 762.636C316.521 763.452 317.109 764.112 317.877 764.616C318.669 765.096 319.545 765.336 320.505 765.336C321.153 765.336 321.801 765.216 322.449 764.976C323.121 764.736 323.661 764.412 324.069 764.004L326.373 766.236ZM323.781 757.38C323.493 756.78 323.037 756.336 322.413 756.048C321.789 755.736 321.153 755.58 320.505 755.58C319.809 755.58 319.161 755.712 318.561 755.976C317.985 756.24 317.481 756.6 317.049 757.056C316.617 757.488 316.269 757.992 316.005 758.568C315.765 759.144 315.645 759.732 315.645 760.332C315.645 760.452 315.645 760.536 315.645 760.584C315.669 760.632 315.681 760.668 315.681 760.692C316.305 760.452 316.977 760.188 317.697 759.9C318.441 759.588 319.173 759.288 319.893 759C320.613 758.688 321.309 758.4 321.981 758.136C322.653 757.848 323.253 757.596 323.781 757.38ZM335.95 768.9C334.534 766.212 333.202 763.56 331.954 760.944C330.73 758.304 329.434 755.64 328.066 752.952H331.414C332.278 754.656 332.962 756.048 333.466 757.128C333.994 758.208 334.414 759.108 334.726 759.828C335.038 760.548 335.278 761.16 335.446 761.664C335.614 762.144 335.782 762.636 335.95 763.14C336.142 762.636 336.322 762.144 336.49 761.664C336.682 761.16 336.922 760.548 337.21 759.828C337.522 759.108 337.93 758.208 338.434 757.128C338.962 756.048 339.658 754.656 340.522 752.952H343.87C342.502 755.64 341.182 758.304 339.91 760.944C338.638 763.56 337.318 766.212 335.95 768.9ZM358.33 766.236C357.61 766.884 356.734 767.4 355.702 767.784C354.67 768.168 353.614 768.36 352.534 768.36C351.43 768.36 350.386 768.156 349.402 767.748C348.442 767.316 347.602 766.752 346.882 766.056C346.162 765.336 345.586 764.496 345.154 763.536C344.746 762.576 344.542 761.556 344.542 760.476C344.542 759.396 344.746 758.376 345.154 757.416C345.586 756.456 346.162 755.616 346.882 754.896C347.602 754.176 348.43 753.612 349.366 753.204C350.326 752.772 351.346 752.556 352.426 752.556C354.13 752.556 355.606 753.072 356.854 754.104C358.126 755.112 359.038 756.444 359.59 758.1C358.846 758.364 357.994 758.688 357.034 759.072C356.074 759.456 355.078 759.864 354.046 760.296C353.014 760.704 351.982 761.112 350.95 761.52C349.918 761.928 348.958 762.3 348.07 762.636C348.478 763.452 349.066 764.112 349.834 764.616C350.626 765.096 351.502 765.336 352.462 765.336C353.11 765.336 353.758 765.216 354.406 764.976C355.078 764.736 355.618 764.412 356.026 764.004L358.33 766.236ZM355.738 757.38C355.45 756.78 354.994 756.336 354.37 756.048C353.746 755.736 353.11 755.58 352.462 755.58C351.766 755.58 351.118 755.712 350.518 755.976C349.942 756.24 349.438 756.6 349.006 757.056C348.574 757.488 348.226 757.992 347.962 758.568C347.722 759.144 347.602 759.732 347.602 760.332C347.602 760.452 347.602 760.536 347.602 760.584C347.626 760.632 347.638 760.668 347.638 760.692C348.262 760.452 348.934 760.188 349.654 759.9C350.398 759.588 351.13 759.288 351.85 759C352.57 758.688 353.266 758.4 353.938 758.136C354.61 757.848 355.21 757.596 355.738 757.38ZM370.53 756.516C369.858 756.516 369.21 756.612 368.586 756.804C367.962 756.972 367.398 757.236 366.894 757.596C366.414 757.956 366.03 758.412 365.742 758.964C365.454 759.492 365.31 760.104 365.31 760.8V768H362.25V752.952H364.95C364.998 753.696 365.034 754.38 365.058 755.004C365.106 755.604 365.154 756.204 365.202 756.804C365.514 756.156 365.922 755.568 366.426 755.04C366.93 754.512 367.47 754.068 368.046 753.708C368.622 753.348 369.186 753.072 369.738 752.88C370.29 752.664 370.782 752.556 371.214 752.556L370.53 756.516ZM377.57 775.236H374.474C374.81 774.54 375.122 773.868 375.41 773.22C375.722 772.596 376.022 771.948 376.31 771.276C376.622 770.628 376.934 769.944 377.246 769.224C377.558 768.528 377.906 767.772 378.29 766.956C377.738 765.876 377.174 764.748 376.598 763.572C376.022 762.372 375.446 761.172 374.87 759.972C374.294 758.772 373.718 757.572 373.142 756.372C372.59 755.172 372.038 754.032 371.486 752.952H374.834C375.698 754.656 376.406 756.096 376.958 757.272C377.534 758.448 378.002 759.468 378.362 760.332C378.746 761.172 379.046 761.892 379.262 762.492C379.502 763.092 379.706 763.644 379.874 764.148C380.066 763.644 380.27 763.092 380.486 762.492C380.726 761.892 381.026 761.172 381.386 760.332C381.77 759.468 382.238 758.448 382.79 757.272C383.366 756.096 384.086 754.656 384.95 752.952H388.298L377.57 775.236ZM398.864 755.364L397.748 752.952H400.412C401.108 754.464 401.696 755.772 402.176 756.876C402.656 757.956 403.064 758.904 403.4 759.72C403.736 760.512 404.012 761.184 404.228 761.736C404.444 762.288 404.624 762.756 404.768 763.14C404.912 762.42 405.08 761.772 405.272 761.196C405.488 760.596 405.752 759.936 406.064 759.216C406.376 758.472 406.748 757.62 407.18 756.66C407.636 755.676 408.176 754.44 408.8 752.952H411.896L404.768 768.9C404.336 768.012 403.928 767.136 403.544 766.272C403.184 765.384 402.824 764.508 402.464 763.644C402.128 762.78 401.768 761.916 401.384 761.052C401.024 760.188 400.628 759.3 400.196 758.388L395.624 768.9L388.82 752.952H391.916C392.54 754.44 393.056 755.676 393.464 756.66C393.872 757.644 394.208 758.496 394.472 759.216C394.76 759.936 394.988 760.596 395.156 761.196C395.324 761.772 395.48 762.42 395.624 763.14C395.72 762.852 395.828 762.528 395.948 762.168C396.092 761.808 396.272 761.352 396.488 760.8C396.728 760.224 397.04 759.504 397.424 758.64C397.808 757.776 398.288 756.684 398.864 755.364ZM414.211 740.028H417.271V756.588C417.799 755.388 418.543 754.428 419.503 753.708C420.463 752.964 421.699 752.58 423.211 752.556C424.747 752.532 425.971 752.94 426.883 753.78C427.819 754.62 428.311 755.712 428.359 757.056V768H425.263V758.46C425.215 757.692 424.951 757.044 424.471 756.516C423.991 755.964 423.235 755.664 422.203 755.616C421.483 755.616 420.823 755.748 420.223 756.012C419.623 756.252 419.107 756.588 418.675 757.02C418.243 757.452 417.895 757.968 417.631 758.568C417.391 759.168 417.271 759.828 417.271 760.548V768H414.211V740.028ZM445.271 766.236C444.551 766.884 443.675 767.4 442.643 767.784C441.611 768.168 440.555 768.36 439.475 768.36C438.371 768.36 437.327 768.156 436.343 767.748C435.383 767.316 434.543 766.752 433.823 766.056C433.103 765.336 432.527 764.496 432.095 763.536C431.687 762.576 431.483 761.556 431.483 760.476C431.483 759.396 431.687 758.376 432.095 757.416C432.527 756.456 433.103 755.616 433.823 754.896C434.543 754.176 435.371 753.612 436.307 753.204C437.267 752.772 438.287 752.556 439.367 752.556C441.071 752.556 442.547 753.072 443.795 754.104C445.067 755.112 445.979 756.444 446.531 758.1C445.787 758.364 444.935 758.688 443.975 759.072C443.015 759.456 442.019 759.864 440.987 760.296C439.955 760.704 438.923 761.112 437.891 761.52C436.859 761.928 435.899 762.3 435.011 762.636C435.419 763.452 436.007 764.112 436.775 764.616C437.567 765.096 438.443 765.336 439.403 765.336C440.051 765.336 440.699 765.216 441.347 764.976C442.019 764.736 442.559 764.412 442.967 764.004L445.271 766.236ZM442.679 757.38C442.391 756.78 441.935 756.336 441.311 756.048C440.687 755.736 440.051 755.58 439.403 755.58C438.707 755.58 438.059 755.712 437.459 755.976C436.883 756.24 436.379 756.6 435.947 757.056C435.515 757.488 435.167 757.992 434.903 758.568C434.663 759.144 434.543 759.732 434.543 760.332C434.543 760.452 434.543 760.536 434.543 760.584C434.567 760.632 434.579 760.668 434.579 760.692C435.203 760.452 435.875 760.188 436.595 759.9C437.339 759.588 438.071 759.288 438.791 759C439.511 758.688 440.207 758.4 440.879 758.136C441.551 757.848 442.151 757.596 442.679 757.38ZM457.471 756.516C456.799 756.516 456.151 756.612 455.527 756.804C454.903 756.972 454.339 757.236 453.835 757.596C453.355 757.956 452.971 758.412 452.683 758.964C452.395 759.492 452.251 760.104 452.251 760.8V768H449.191V752.952H451.891C451.939 753.696 451.975 754.38 451.999 755.004C452.047 755.604 452.095 756.204 452.143 756.804C452.455 756.156 452.863 755.568 453.367 755.04C453.871 754.512 454.411 754.068 454.987 753.708C455.563 753.348 456.127 753.072 456.679 752.88C457.231 752.664 457.723 752.556 458.155 752.556L457.471 756.516ZM472.834 766.236C472.114 766.884 471.238 767.4 470.206 767.784C469.174 768.168 468.118 768.36 467.038 768.36C465.934 768.36 464.89 768.156 463.906 767.748C462.946 767.316 462.106 766.752 461.386 766.056C460.666 765.336 460.09 764.496 459.658 763.536C459.25 762.576 459.046 761.556 459.046 760.476C459.046 759.396 459.25 758.376 459.658 757.416C460.09 756.456 460.666 755.616 461.386 754.896C462.106 754.176 462.934 753.612 463.87 753.204C464.83 752.772 465.85 752.556 466.93 752.556C468.634 752.556 470.11 753.072 471.358 754.104C472.63 755.112 473.542 756.444 474.094 758.1C473.35 758.364 472.498 758.688 471.538 759.072C470.578 759.456 469.582 759.864 468.55 760.296C467.518 760.704 466.486 761.112 465.454 761.52C464.422 761.928 463.462 762.3 462.574 762.636C462.982 763.452 463.57 764.112 464.338 764.616C465.13 765.096 466.006 765.336 466.966 765.336C467.614 765.336 468.262 765.216 468.91 764.976C469.582 764.736 470.122 764.412 470.53 764.004L472.834 766.236ZM470.242 757.38C469.954 756.78 469.498 756.336 468.874 756.048C468.25 755.736 467.614 755.58 466.966 755.58C466.27 755.58 465.622 755.712 465.022 755.976C464.446 756.24 463.942 756.6 463.51 757.056C463.078 757.488 462.73 757.992 462.466 758.568C462.226 759.144 462.106 759.732 462.106 760.332C462.106 760.452 462.106 760.536 462.106 760.584C462.13 760.632 462.142 760.668 462.142 760.692C462.766 760.452 463.438 760.188 464.158 759.9C464.902 759.588 465.634 759.288 466.354 759C467.074 758.688 467.77 758.4 468.442 758.136C469.114 757.848 469.714 757.596 470.242 757.38Z" fill="white"/>
<path d="M263.022 325C263.955 327.267 265.488 331 267.622 336.2C269.755 341.267 272.155 347.067 274.822 353.6C277.622 360.133 280.488 367.067 283.422 374.4C286.488 381.733 289.355 388.667 292.022 395.2C294.688 401.733 297.088 407.6 299.222 412.8C301.355 417.867 302.888 421.533 303.822 423.8C303.955 424.067 304.288 425 304.822 426.6C305.355 428.2 305.755 429.6 306.022 430.8L308.022 423.8C308.955 421.533 310.488 417.867 312.622 412.8C314.755 407.6 317.155 401.733 319.822 395.2C322.488 388.667 325.288 381.733 328.222 374.4C331.288 367.067 334.155 360.133 336.822 353.6C339.622 347.067 342.088 341.267 344.222 336.2C346.355 331 347.888 327.267 348.822 325H370.422C369.622 326.867 368.155 330.267 366.022 335.2C364.022 340 361.555 345.867 358.622 352.8C355.688 359.733 352.422 367.333 348.822 375.6C345.355 383.867 341.755 392.267 338.022 400.8C334.422 409.333 330.822 417.733 327.222 426C323.755 434.267 320.555 441.867 317.622 448.8C314.822 455.733 312.355 461.667 310.222 466.6C308.222 471.4 306.822 474.733 306.022 476.6L241.422 325H263.022Z" fill="white"/>
<path d="M287.278 325C288.211 327.267 289.744 331 291.878 336.2C294.011 341.267 296.411 347.067 299.078 353.6C301.878 360.133 304.745 367.067 307.678 374.4C310.745 381.733 313.611 388.667 316.278 395.2C318.945 401.733 321.345 407.6 323.478 412.8C325.611 417.867 327.145 421.533 328.078 423.8C328.211 424.067 328.545 425 329.078 426.6C329.611 428.2 330.011 429.6 330.278 430.8L332.278 423.8C333.211 421.533 334.745 417.867 336.878 412.8C339.011 407.6 341.411 401.733 344.078 395.2C346.745 388.667 349.545 381.733 352.478 374.4C355.545 367.067 358.411 360.133 361.078 353.6C363.878 347.067 366.345 341.267 368.478 336.2C370.611 331 372.145 327.267 373.078 325H394.678C393.878 326.867 392.411 330.267 390.278 335.2C388.278 340 385.811 345.867 382.878 352.8C379.945 359.733 376.678 367.333 373.078 375.6C369.611 383.867 366.011 392.267 362.278 400.8C358.678 409.333 355.078 417.733 351.478 426C348.011 434.267 344.811 441.867 341.878 448.8C339.078 455.733 336.611 461.667 334.478 466.6C332.478 471.4 331.078 474.733 330.278 476.6L265.678 325H287.278Z" fill="white"/>
<path d="M429.769 422.434C428.041 426.994 426.193 431.794 424.225 436.834C422.305 441.826 420.385 446.746 418.465 451.594C416.593 456.442 414.817 461.05 413.137 465.418C411.457 469.786 410.041 473.554 408.889 476.722L397.225 447.562C397.081 447.178 396.961 446.89 396.865 446.698C396.769 446.506 396.673 446.218 396.577 445.834C396.577 446.026 396.553 446.218 396.505 446.41C396.457 446.554 396.409 446.722 396.361 446.914C396.313 447.106 396.265 447.298 396.217 447.49C394.585 451.234 392.977 454.906 391.393 458.506C390.721 460.042 390.025 461.626 389.305 463.258C388.585 464.89 387.889 466.522 387.217 468.154C386.545 469.738 385.873 471.274 385.201 472.762C384.577 474.25 384.001 475.594 383.473 476.794C380.017 467.722 376.537 458.674 373.033 449.65C369.529 440.626 366.049 431.554 362.593 422.434H371.449C372.601 425.602 373.777 428.794 374.977 432.01C376.225 435.226 377.377 438.322 378.433 441.298C379.537 444.274 380.521 447.034 381.385 449.578C382.249 452.122 382.921 454.282 383.401 456.058L383.977 458.578C384.025 458.338 384.145 457.954 384.337 457.426C384.529 456.85 384.673 456.442 384.769 456.202C384.817 456.01 384.985 455.578 385.273 454.906C385.561 454.234 385.897 453.442 386.281 452.53C386.665 451.57 387.097 450.538 387.577 449.434C388.057 448.33 388.537 447.202 389.017 446.05C390.169 443.41 391.441 440.482 392.833 437.266C392.017 435.01 391.297 432.898 390.673 430.93C390.097 429.25 389.545 427.594 389.017 425.962C388.537 424.33 388.177 423.154 387.937 422.434H395.497C397.561 427.858 399.481 432.874 401.257 437.482C401.977 439.45 402.697 441.418 403.417 443.386C404.185 445.354 404.881 447.178 405.505 448.858C406.177 450.538 406.753 452.026 407.233 453.322C407.713 454.57 408.049 455.482 408.241 456.058C408.385 456.49 408.481 456.922 408.529 457.354C408.625 457.738 408.721 458.146 408.817 458.578C408.913 458.146 408.985 457.714 409.033 457.282C409.129 456.85 409.225 456.442 409.321 456.058C409.753 454.186 410.425 451.954 411.337 449.362C412.249 446.77 413.257 443.986 414.361 441.01C415.513 438.034 416.713 434.962 417.961 431.794C419.209 428.578 420.409 425.458 421.561 422.434H429.769ZM453.561 470.89C452.121 472.186 450.369 473.218 448.305 473.986C446.241 474.754 444.129 475.138 441.969 475.138C439.761 475.138 437.673 474.73 435.705 473.914C433.785 473.05 432.105 471.922 430.665 470.53C429.225 469.09 428.073 467.41 427.209 465.49C426.393 463.57 425.985 461.53 425.985 459.37C425.985 457.21 426.393 455.17 427.209 453.25C428.073 451.33 429.225 449.65 430.665 448.21C432.105 446.77 433.761 445.642 435.633 444.826C437.553 443.962 439.593 443.53 441.753 443.53C445.161 443.53 448.113 444.562 450.609 446.626C453.153 448.642 454.977 451.306 456.081 454.618C454.593 455.146 452.889 455.794 450.969 456.562C449.049 457.33 447.057 458.146 444.993 459.01C442.929 459.826 440.865 460.642 438.801 461.458C436.737 462.274 434.817 463.018 433.041 463.69C433.857 465.322 435.033 466.642 436.569 467.65C438.153 468.61 439.905 469.09 441.825 469.09C443.121 469.09 444.417 468.85 445.713 468.37C447.057 467.89 448.137 467.242 448.953 466.426L453.561 470.89ZM448.377 453.178C447.801 451.978 446.889 451.09 445.641 450.514C444.393 449.89 443.121 449.578 441.825 449.578C440.433 449.578 439.137 449.842 437.937 450.37C436.785 450.898 435.777 451.618 434.913 452.53C434.049 453.394 433.353 454.402 432.825 455.554C432.345 456.706 432.105 457.882 432.105 459.082C432.105 459.322 432.105 459.49 432.105 459.586C432.153 459.682 432.177 459.754 432.177 459.802C433.425 459.322 434.769 458.794 436.209 458.218C437.697 457.594 439.161 456.994 440.601 456.418C442.041 455.794 443.433 455.218 444.777 454.69C446.121 454.114 447.321 453.61 448.377 453.178ZM459.386 459.37C459.386 457.018 459.77 454.882 460.538 452.962C461.354 450.994 462.458 449.314 463.85 447.922C465.242 446.53 466.874 445.45 468.746 444.682C470.666 443.914 472.73 443.53 474.938 443.53C476.426 443.53 477.746 443.722 478.898 444.106C480.098 444.442 481.106 444.874 481.922 445.402C482.786 445.882 483.506 446.434 484.082 447.058C484.658 447.682 485.09 448.234 485.378 448.714V418.474H491.57V474.418H485.378V472.186C485.378 471.898 485.402 471.586 485.45 471.25C485.498 470.866 485.522 470.554 485.522 470.314C485.042 470.89 484.466 471.466 483.794 472.042C483.17 472.57 482.426 473.074 481.562 473.554C480.698 474.034 479.69 474.418 478.538 474.706C477.434 474.994 476.162 475.138 474.722 475.138C472.322 475.138 470.162 474.73 468.242 473.914C466.37 473.05 464.762 471.922 463.418 470.53C462.122 469.09 461.114 467.41 460.394 465.49C459.722 463.57 459.386 461.53 459.386 459.37ZM465.578 459.298C465.578 460.69 465.818 461.986 466.298 463.186C466.826 464.386 467.522 465.418 468.386 466.282C469.25 467.146 470.282 467.842 471.482 468.37C472.682 468.85 474.002 469.09 475.442 469.09C476.882 469.09 478.202 468.85 479.402 468.37C480.65 467.842 481.706 467.146 482.57 466.282C483.482 465.37 484.178 464.338 484.658 463.186C485.138 461.986 485.378 460.69 485.378 459.298C485.378 457.906 485.138 456.634 484.658 455.482C484.178 454.282 483.482 453.25 482.57 452.386C481.706 451.522 480.65 450.85 479.402 450.37C478.202 449.842 476.882 449.578 475.442 449.578C474.002 449.578 472.682 449.842 471.482 450.37C470.282 450.85 469.25 451.522 468.386 452.386C467.522 453.25 466.826 454.282 466.298 455.482C465.818 456.634 465.578 457.906 465.578 459.298ZM498.126 459.298C498.126 457.138 498.534 455.098 499.35 453.178C500.214 451.258 501.366 449.602 502.806 448.21C504.246 446.77 505.926 445.642 507.846 444.826C509.814 443.962 511.926 443.53 514.182 443.53C516.438 443.53 518.526 443.962 520.446 444.826C522.414 445.642 524.094 446.77 525.486 448.21C526.926 449.602 528.03 451.258 528.798 453.178C529.614 455.098 530.022 457.138 530.022 459.298C530.022 461.458 529.614 463.498 528.798 465.418C528.03 467.338 526.926 469.018 525.486 470.458C524.094 471.898 522.414 473.05 520.446 473.914C518.526 474.73 516.414 475.138 514.11 475.138C511.902 475.138 509.814 474.754 507.846 473.986C505.926 473.218 504.246 472.138 502.806 470.746C501.366 469.354 500.214 467.698 499.35 465.778C498.534 463.81 498.126 461.65 498.126 459.298ZM504.246 459.37C504.246 460.714 504.486 461.986 504.966 463.186C505.494 464.338 506.19 465.37 507.054 466.282C507.966 467.146 508.998 467.842 510.15 468.37C511.35 468.85 512.622 469.09 513.966 469.09C515.31 469.09 516.582 468.85 517.782 468.37C518.982 467.842 520.014 467.146 520.878 466.282C521.79 465.37 522.51 464.338 523.038 463.186C523.566 461.986 523.83 460.714 523.83 459.37C523.83 458.026 523.566 456.754 523.038 455.554C522.51 454.354 521.79 453.322 520.878 452.458C520.014 451.546 518.982 450.85 517.782 450.37C516.582 449.842 515.31 449.578 513.966 449.578C512.622 449.578 511.35 449.842 510.15 450.37C508.998 450.85 507.966 451.546 507.054 452.458C506.19 453.322 505.494 454.354 504.966 455.554C504.486 456.754 504.246 458.026 504.246 459.37Z" fill="white"/>
<path d="M124.138 417.8C124.474 418.616 125.026 419.96 125.794 421.832C126.562 423.656 127.426 425.744 128.386 428.096C129.394 430.448 130.426 432.944 131.482 435.584C132.586 438.224 133.618 440.72 134.578 443.072C135.538 445.424 136.402 447.536 137.17 449.408C137.938 451.232 138.49 452.552 138.826 453.368C138.874 453.464 138.994 453.8 139.186 454.376C139.378 454.952 139.522 455.456 139.618 455.888L140.338 453.368C140.674 452.552 141.226 451.232 141.994 449.408C142.762 447.536 143.626 445.424 144.586 443.072C145.546 440.72 146.554 438.224 147.61 435.584C148.714 432.944 149.746 430.448 150.706 428.096C151.714 425.744 152.602 423.656 153.37 421.832C154.138 419.96 154.69 418.616 155.026 417.8H162.802C162.514 418.472 161.986 419.696 161.218 421.472C160.498 423.2 159.61 425.312 158.554 427.808C157.498 430.304 156.322 433.04 155.026 436.016C153.778 438.992 152.482 442.016 151.138 445.088C149.842 448.16 148.546 451.184 147.25 454.16C146.002 457.136 144.85 459.872 143.794 462.368C142.786 464.864 141.898 467 141.13 468.776C140.41 470.504 139.906 471.704 139.618 472.376L116.362 417.8H124.138ZM185.331 466.472C183.891 467.768 182.139 468.8 180.075 469.568C178.011 470.336 175.899 470.72 173.739 470.72C171.531 470.72 169.443 470.312 167.475 469.496C165.555 468.632 163.875 467.504 162.435 466.112C160.995 464.672 159.843 462.992 158.979 461.072C158.163 459.152 157.755 457.112 157.755 454.952C157.755 452.792 158.163 450.752 158.979 448.832C159.843 446.912 160.995 445.232 162.435 443.792C163.875 442.352 165.531 441.224 167.403 440.408C169.323 439.544 171.363 439.112 173.523 439.112C176.931 439.112 179.883 440.144 182.379 442.208C184.923 444.224 186.747 446.888 187.851 450.2C186.363 450.728 184.659 451.376 182.739 452.144C180.819 452.912 178.827 453.728 176.763 454.592C174.699 455.408 172.635 456.224 170.571 457.04C168.507 457.856 166.587 458.6 164.811 459.272C165.627 460.904 166.803 462.224 168.339 463.232C169.923 464.192 171.675 464.672 173.595 464.672C174.891 464.672 176.187 464.432 177.483 463.952C178.827 463.472 179.907 462.824 180.723 462.008L185.331 466.472ZM180.147 448.76C179.571 447.56 178.659 446.672 177.411 446.096C176.163 445.472 174.891 445.16 173.595 445.16C172.203 445.16 170.907 445.424 169.707 445.952C168.555 446.48 167.547 447.2 166.683 448.112C165.819 448.976 165.123 449.984 164.595 451.136C164.115 452.288 163.875 453.464 163.875 454.664C163.875 454.904 163.875 455.072 163.875 455.168C163.923 455.264 163.947 455.336 163.947 455.384C165.195 454.904 166.539 454.376 167.979 453.8C169.467 453.176 170.931 452.576 172.371 452C173.811 451.376 175.203 450.8 176.547 450.272C177.891 449.696 179.091 449.192 180.147 448.76ZM193.171 439.904H198.571C198.667 441.392 198.739 442.76 198.787 444.008C198.883 445.208 198.979 446.408 199.075 447.608C200.179 445.016 201.739 442.952 203.755 441.416C205.819 439.88 208.339 439.112 211.315 439.112C214.339 439.112 216.763 439.952 218.587 441.632C220.411 443.312 221.371 445.472 221.467 448.112V470H215.275V450.92C215.179 449.384 214.651 448.088 213.691 447.032C212.731 445.928 211.219 445.328 209.155 445.232C207.715 445.232 206.395 445.496 205.195 446.024C203.995 446.504 202.963 447.176 202.099 448.04C201.235 448.904 200.539 449.936 200.011 451.136C199.531 452.336 199.291 453.656 199.291 455.096V470H193.171V439.904ZM229.804 439.904H235.204C235.3 441.392 235.372 442.76 235.42 444.008C235.516 445.208 235.612 446.408 235.708 447.608C236.812 445.016 238.372 442.952 240.388 441.416C242.452 439.88 244.972 439.112 247.948 439.112C250.972 439.112 253.396 439.952 255.22 441.632C257.044 443.312 258.004 445.472 258.1 448.112V470H251.908V450.92C251.812 449.384 251.284 448.088 250.324 447.032C249.364 445.928 247.852 445.328 245.788 445.232C244.348 445.232 243.028 445.496 241.828 446.024C240.628 446.504 239.596 447.176 238.732 448.04C237.868 448.904 237.172 449.936 236.644 451.136C236.164 452.336 235.924 453.656 235.924 455.096V470H229.804V439.904Z" fill="white"/>
</g>
<defs>
<clipPath id="clip0">
<rect width="1440" height="1024" fill="white"/>
</clipPath>
</defs>
</svg>
